<svg width="134px" viewBox="0 0 134 36" version="1.1" xmlns="http://www.w3.org/2000/svg" xmlns:xlink="http://www.w3.org/1999/xlink">
  <desc>SeedPlus Sessions wordmark</desc>
  <g id="Wordmark" fill="#373535" fill-rule="evenodd" stroke="none" stroke-width="1">
    <path d="M128.709725,8.24414659 C126.374946,7.38004432 124.88959,7.38004432 124.88959,6.06945341 C124.88959,5.17719205 125.578441,4.84238523 126.586847,4.84238523 C127.22119,4.84238523 128.123532,4.98914659 129.135346,5.28028295 C129.47239,5.34877159 129.828739,5.36118068 130.190312,5.30319205 C131.604807,5.07529432 132.642285,3.87733977 132.794681,2.45339659 L132.794681,1.73152159 C132.789912,1.6849875 132.788322,1.63940795 132.781963,1.5931125 C132.778783,1.57545341 132.783553,1.56328295 132.781963,1.54777159 C130.978641,0.6034875 128.518492,0.0761011364 126.533929,0.0761011364 C122.236844,0.0761011364 119.344942,2.55744205 119.344942,6.48754432 C119.344942,9.74874886 121.361983,11.254783 124.279322,12.3136125 C126.720166,13.2058739 128.258441,13.2058739 128.258441,14.6551125 C128.258441,15.6869761 127.461936,16.1053057 126.347464,16.1053057 C125.777397,16.1053057 124.957044,15.9840784 124.02722,15.7442489 C123.731739,15.6776693 123.426492,15.6466466 123.110569,15.6690784 C121.300661,15.7938852 119.930908,17.4383284 120.049692,19.3404989 C120.053098,19.389658 120.056278,19.4376239 120.061047,19.4848739 C120.062637,19.4865443 120.061047,19.4879761 120.062637,19.4898852 C121.915698,20.4017148 124.340417,20.8715898 126.296136,20.8715898 C130.752203,20.8715898 133.803088,18.3909648 133.803088,14.3203057 C133.803088,10.9194989 131.707692,9.35929432 128.709725,8.24414659" id="S"></path>
    <path d="M117.246003,3.25748182 L117.246003,11.0033795 C117.246003,13.9584136 116.742026,16.105425 115.733393,17.5823455 C114.273701,19.7288795 111.436308,20.8717091 108.279586,20.8717091 C105.122409,20.8717091 102.285243,19.7288795 100.825325,17.5823455 C99.8171451,16.105425 99.3129417,13.9584136 99.3129417,11.0033795 L99.3129417,3.25748182 C99.3129417,1.66887955 100.53802,0.383345455 102.04904,0.383345455 L104.778779,0.383345455 L104.778779,10.6692886 C104.778779,12.6203795 104.990681,13.7624932 105.522365,14.5440273 C106.05246,15.3243682 106.953213,15.8818227 108.279586,15.8818227 C109.607321,15.8818227 110.506711,15.3243682 111.036579,14.5440273 C111.568037,13.7624932 111.780165,12.6203795 111.780165,10.6692886 L111.780165,0.383345455 L114.509904,0.383345455 C116.020925,0.383345455 117.246003,1.66887955 117.246003,3.25748182" id="U"></path>
    <path d="M89.8885173,15.7145864 L89.8885173,0.383393182 L87.1571885,0.383393182 C85.6461681,0.383393182 84.4224529,1.66892727 84.4224529,3.25752955 L84.4224529,20.5646318 L95.1442698,20.5646318 C96.65688,20.5646318 97.8805953,19.2783818 97.8805953,17.6902568 L97.8933139,15.7145864 L89.8885173,15.7145864 Z" id="L"></path>
    <path d="M66.9374515,17.6903284 C66.9374515,19.2782148 68.1625295,20.5647034 69.6735498,20.5647034 L72.4032888,20.5647034 L72.4032888,14.7362489 L66.9374515,14.7362489 L66.9374515,17.6903284 Z M78.9565475,1.44207955 C77.5241102,0.689420455 75.6665068,0.38325 73.1741068,0.38325 L66.9374288,0.38325 L66.9374288,8.55272727 L72.4034932,8.55272727 L72.4034932,4.95409091 L73.2256627,4.95409091 C74.6047271,4.95409091 75.2681407,5.06577273 75.7723441,5.31634091 C76.4630119,5.651625 76.8336695,6.32052273 76.8336695,7.24094318 C76.8336695,8.13248864 76.4884492,8.77370455 75.8525169,9.10755682 C75.4012322,9.35931818 74.5792898,9.47028409 73.3862356,9.47028409 L73.1484424,9.47028409 L72.8897542,9.47028409 L64.9044898,9.47028409 C63.3934695,9.47028409 62.1697542,10.7567727 62.1697542,12.3456136 L62.1697542,13.8156136 L72.8897542,13.8184773 L73.2801712,13.8184773 C75.9054356,13.8184773 77.9481407,13.3729432 79.4334966,12.4534773 C81.3442458,11.2824886 82.299961,9.47028409 82.299961,7.12830682 C82.299961,4.31263636 80.9461068,2.47370455 78.9565475,1.44207955 Z" id="P"></path>
    <path d="M49.7090488,18.9669375 C52.5384929,18.9669375 54.7333675,18.4109148 56.4276725,16.9664489 C58.1730793,15.4935852 59.2841437,13.159483 59.2841437,10.4640852 C59.2841437,7.60092614 58.0397607,5.24057386 56.2412081,3.7944375 C54.5762014,2.4609375 52.4340183,1.95980114 49.6833844,1.95980114 L46.5618658,1.95980114 L46.5618658,18.9669375 L49.7090488,18.9669375 Z M44.9479607,0.404369318 L49.8407776,0.404369318 C52.9093776,0.404369318 55.2907166,1.07159659 57.140598,2.4609375 C59.4672014,4.21133523 60.896459,7.12842614 60.896459,10.4082443 C60.896459,13.6599034 59.4944556,16.382983 57.5918827,18.049858 C55.71452,19.6907216 53.2000895,20.5230852 49.49692,20.5230852 L44.9479607,20.5230852 L44.9479607,0.404369318 Z" id="D"></path>
    <polygon id="E" points="30.3498417 0.404321591 40.9542383 0.404321591 40.9542383 1.95999205 31.9635197 1.95999205 31.9635197 9.29662841 39.9235739 9.29662841 39.9235739 10.8522989 31.9635197 10.8522989 31.9635197 18.9668898 41.1936214 18.9668898 41.1936214 20.5232761 30.3498417 20.5232761"></polygon>
    <polygon id="E" points="15.7501556 0.404321591 26.3545522 0.404321591 26.3545522 1.95999205 17.3624708 1.95999205 17.3624708 9.29662841 25.3236607 9.29662841 25.3236607 10.8522989 17.3624708 10.8522989 17.3624708 18.9668898 26.5941624 18.9668898 26.5941624 20.5232761 15.7501556 20.5232761"></polygon>
    <path d="M0.541836949,17.2710682 C2.20729797,18.6346364 4.37514542,19.2443523 6.14780644,19.2443523 C8.71538271,19.2443523 10.5925183,17.9394886 10.5925183,15.327375 C10.5925183,12.3539659 8.13259627,11.7146591 5.64519288,10.9920682 C2.89592169,10.1859545 0.196843729,9.12855682 0.196843729,5.48935227 C0.196843729,2.04344318 2.57795559,0.0987954545 6.04333186,0.0987954545 C7.84188441,0.0987954545 9.93114881,0.626897727 11.4115081,1.68334091 L11.4115081,3.51702273 C9.79760305,2.29377273 7.73582,1.68334091 6.01607763,1.68334091 C3.53026407,1.68334091 1.81211153,2.93260227 1.81211153,5.37814773 C1.81211153,8.24059091 4.21911492,8.82429545 6.59909119,9.51848864 C9.32406068,10.3253182 12.2048336,11.3812841 12.2048336,15.243375 C12.2048336,18.7730455 9.74627424,20.8284205 6.14780644,20.8284205 C4.24500644,20.8284205 2.07556915,20.2456705 0.541836949,19.1620227 L0.541836949,17.2710682 Z" id="S"></path>
    <path d="M22.175,29.39 C22.0949996,29.2966662 21.988334,29.2066671 21.855,29.12 C21.721666,29.0333329 21.5716675,28.9550004 21.405,28.885 C21.2383325,28.8149997 21.0566676,28.7583336 20.86,28.715 C20.6633323,28.6716665 20.4583344,28.65 20.245,28.65 C19.6916639,28.65 19.2866679,28.7533323 19.03,28.96 C18.773332,29.1666677 18.645,29.4499982 18.645,29.81 C18.645,30.0033343 18.6816663,30.1633327 18.755,30.29 C18.8283337,30.4166673 18.9433325,30.5249996 19.1,30.615 C19.2566674,30.7050005 19.4516655,30.783333 19.685,30.85 C19.9183345,30.916667 20.1949984,30.9866663 20.515,31.06 C20.8816685,31.1400004 21.2133318,31.2316662 21.51,31.335 C21.8066681,31.4383339 22.0599989,31.5666659 22.27,31.72 C22.480001,31.8733341 22.6399994,32.0599989 22.75,32.28 C22.8600005,32.5000011 22.915,32.7699984 22.915,33.09 C22.915,33.4300017 22.848334,33.7249988 22.715,33.975 C22.581666,34.2250013 22.4000011,34.4316659 22.17,34.595 C21.9399988,34.7583342 21.6683349,34.878333 21.355,34.955 C21.0416651,35.0316671 20.7016685,35.07 20.335,35.07 C19.7883306,35.07 19.2700024,34.9850009 18.78,34.815 C18.2899975,34.6449992 17.845002,34.3966683 17.445,34.07 L17.875,33.31 C17.9816672,33.4233339 18.1199991,33.5366661 18.29,33.65 C18.4600008,33.7633339 18.6533322,33.8649996 18.87,33.955 C19.0866677,34.0450005 19.3199987,34.1183331 19.57,34.175 C19.8200012,34.231667 20.0816653,34.26 20.355,34.26 C20.8616692,34.26 21.2549986,34.1700009 21.535,33.99 C21.8150014,33.8099991 21.955,33.5400018 21.955,33.18 C21.955,32.979999 21.9100004,32.8116674 21.82,32.675 C21.7299995,32.5383327 21.5983342,32.4200005 21.425,32.32 C21.2516658,32.2199995 21.0366679,32.1316671 20.78,32.055 C20.523332,31.978333 20.2316683,31.9000004 19.905,31.82 C19.5449982,31.7333329 19.2283347,31.6400005 18.955,31.54 C18.6816653,31.4399995 18.4533342,31.3200007 18.27,31.18 C18.0866657,31.0399993 17.9483338,30.870001 17.855,30.67 C17.7616662,30.469999 17.715,30.2300014 17.715,29.95 C17.715,29.6099983 17.7783327,29.3100013 17.905,29.05 C18.0316673,28.7899987 18.2083322,28.5700009 18.435,28.39 C18.6616678,28.2099991 18.9316651,28.0750005 19.245,27.985 C19.5583349,27.8949996 19.8983315,27.85 20.265,27.85 C20.7450024,27.85 21.1783314,27.9233326 21.565,28.07 C21.9516686,28.2166674 22.2949985,28.4133321 22.595,28.66 L22.175,29.39 Z M36.415,34.2 L36.415,35 L31.595,35 L31.595,27.9 L36.325,27.9 L36.325,28.7 L32.495,28.7 L32.495,31 L35.825,31 L35.825,31.75 L32.495,31.75 L32.495,34.2 L36.415,34.2 Z M49.315,29.39 C49.2349996,29.2966662 49.128334,29.2066671 48.995,29.12 C48.861666,29.0333329 48.7116675,28.9550004 48.545,28.885 C48.3783325,28.8149997 48.1966676,28.7583336 48,28.715 C47.8033323,28.6716665 47.5983344,28.65 47.385,28.65 C46.8316639,28.65 46.4266679,28.7533323 46.17,28.96 C45.913332,29.1666677 45.785,29.4499982 45.785,29.81 C45.785,30.0033343 45.8216663,30.1633327 45.895,30.29 C45.9683337,30.4166673 46.0833325,30.5249996 46.24,30.615 C46.3966674,30.7050005 46.5916655,30.783333 46.825,30.85 C47.0583345,30.916667 47.3349984,30.9866663 47.655,31.06 C48.0216685,31.1400004 48.3533318,31.2316662 48.65,31.335 C48.9466681,31.4383339 49.1999989,31.5666659 49.41,31.72 C49.620001,31.8733341 49.7799994,32.0599989 49.89,32.28 C50.0000005,32.5000011 50.055,32.7699984 50.055,33.09 C50.055,33.4300017 49.988334,33.7249988 49.855,33.975 C49.721666,34.2250013 49.5400011,34.4316659 49.31,34.595 C49.0799988,34.7583342 48.8083349,34.878333 48.495,34.955 C48.1816651,35.0316671 47.8416685,35.07 47.475,35.07 C46.9283306,35.07 46.4100024,34.9850009 45.92,34.815 C45.4299975,34.6449992 44.985002,34.3966683 44.585,34.07 L45.015,33.31 C45.1216672,33.4233339 45.2599991,33.5366661 45.43,33.65 C45.6000008,33.7633339 45.7933322,33.8649996 46.01,33.955 C46.2266677,34.0450005 46.4599987,34.1183331 46.71,34.175 C46.9600012,34.231667 47.2216653,34.26 47.495,34.26 C48.0016692,34.26 48.3949986,34.1700009 48.675,33.99 C48.9550014,33.8099991 49.095,33.5400018 49.095,33.18 C49.095,32.979999 49.0500004,32.8116674 48.96,32.675 C48.8699995,32.5383327 48.7383342,32.4200005 48.565,32.32 C48.3916658,32.2199995 48.1766679,32.1316671 47.92,32.055 C47.663332,31.978333 47.3716683,31.9000004 47.045,31.82 C46.6849982,31.7333329 46.3683347,31.6400005 46.095,31.54 C45.8216653,31.4399995 45.5933342,31.3200007 45.41,31.18 C45.2266657,31.0399993 45.0883338,30.870001 44.995,30.67 C44.9016662,30.469999 44.855,30.2300014 44.855,29.95 C44.855,29.6099983 44.9183327,29.3100013 45.045,29.05 C45.1716673,28.7899987 45.3483322,28.5700009 45.575,28.39 C45.8016678,28.2099991 46.0716651,28.0750005 46.385,27.985 C46.6983349,27.8949996 47.0383315,27.85 47.405,27.85 C47.8850024,27.85 48.3183314,27.9233326 48.705,28.07 C49.0916686,28.2166674 49.4349985,28.4133321 49.735,28.66 L49.315,29.39 Z M62.905,29.39 C62.8249996,29.2966662 62.718334,29.2066671 62.585,29.12 C62.451666,29.0333329 62.3016675,28.9550004 62.135,28.885 C61.9683325,28.8149997 61.7866676,28.7583336 61.59,28.715 C61.3933323,28.6716665 61.1883344,28.65 60.975,28.65 C60.4216639,28.65 60.0166679,28.7533323 59.76,28.96 C59.503332,29.1666677 59.375,29.4499982 59.375,29.81 C59.375,30.0033343 59.4116663,30.1633327 59.485,30.29 C59.5583337,30.4166673 59.6733325,30.5249996 59.83,30.615 C59.9866674,30.7050005 60.1816655,30.783333 60.415,30.85 C60.6483345,30.916667 60.9249984,30.9866663 61.245,31.06 C61.6116685,31.1400004 61.9433318,31.2316662 62.24,31.335 C62.5366681,31.4383339 62.7899989,31.5666659 63,31.72 C63.210001,31.8733341 63.3699994,32.0599989 63.48,32.28 C63.5900005,32.5000011 63.645,32.7699984 63.645,33.09 C63.645,33.4300017 63.578334,33.7249988 63.445,33.975 C63.311666,34.2250013 63.1300011,34.4316659 62.9,34.595 C62.6699988,34.7583342 62.3983349,34.878333 62.085,34.955 C61.7716651,35.0316671 61.4316685,35.07 61.065,35.07 C60.5183306,35.07 60.0000024,34.9850009 59.51,34.815 C59.0199975,34.6449992 58.575002,34.3966683 58.175,34.07 L58.605,33.31 C58.7116672,33.4233339 58.8499991,33.5366661 59.02,33.65 C59.1900008,33.7633339 59.3833322,33.8649996 59.6,33.955 C59.8166677,34.0450005 60.0499987,34.1183331 60.3,34.175 C60.5500012,34.231667 60.8116653,34.26 61.085,34.26 C61.5916692,34.26 61.9849986,34.1700009 62.265,33.99 C62.5450014,33.8099991 62.685,33.5400018 62.685,33.18 C62.685,32.979999 62.6400004,32.8116674 62.55,32.675 C62.4599995,32.5383327 62.3283342,32.4200005 62.155,32.32 C61.9816658,32.2199995 61.7666679,32.1316671 61.51,32.055 C61.253332,31.978333 60.9616683,31.9000004 60.635,31.82 C60.2749982,31.7333329 59.9583347,31.6400005 59.685,31.54 C59.4116653,31.4399995 59.1833342,31.3200007 59,31.18 C58.8166657,31.0399993 58.6783338,30.870001 58.585,30.67 C58.4916662,30.469999 58.445,30.2300014 58.445,29.95 C58.445,29.6099983 58.5083327,29.3100013 58.635,29.05 C58.7616673,28.7899987 58.9383322,28.5700009 59.165,28.39 C59.3916678,28.2099991 59.6616651,28.0750005 59.975,27.985 C60.2883349,27.8949996 60.6283315,27.85 60.995,27.85 C61.4750024,27.85 61.9083314,27.9233326 62.295,28.07 C62.6816686,28.2166674 63.0249985,28.4133321 63.325,28.66 L62.905,29.39 Z M72.325,35 L72.325,27.9 L73.225,27.9 L73.225,35 L72.325,35 Z M85.305,35.05 C84.8049975,35.05 84.350002,34.9483344 83.94,34.745 C83.5299979,34.5416657 83.1783348,34.2716684 82.885,33.935 C82.5916652,33.5983317 82.3650008,33.2133355 82.205,32.78 C82.0449992,32.3466645 81.965,31.9033356 81.965,31.45 C81.965,30.9766643 82.0499991,30.5233355 82.22,30.09 C82.3900008,29.6566645 82.6249985,29.273335 82.925,28.94 C83.2250015,28.606665 83.5799979,28.3416677 83.99,28.145 C84.400002,27.9483324 84.8449976,27.85 85.325,27.85 C85.8250025,27.85 86.2783313,27.954999 86.685,28.165 C87.0916687,28.3750011 87.4416652,28.6499983 87.735,28.99 C88.0283348,29.3300017 88.2549992,29.7149979 88.415,30.145 C88.5750008,30.5750022 88.655,31.0133311 88.655,31.46 C88.655,31.9333357 88.5700008,32.3866645 88.4,32.82 C88.2299991,33.2533355 87.9966681,33.6349984 87.7,33.965 C87.4033318,34.2950017 87.050002,34.5583324 86.64,34.755 C86.2299979,34.9516677 85.7850024,35.05 85.305,35.05 Z M82.875,31.45 C82.875,31.8100018 82.9333327,32.1583317 83.05,32.495 C83.1666672,32.8316684 83.3316656,33.1299987 83.545,33.39 C83.7583344,33.6500013 84.0149985,33.8566659 84.315,34.01 C84.6150015,34.1633341 84.9483315,34.24 85.315,34.24 C85.6950019,34.24 86.0349985,34.1583342 86.335,33.995 C86.6350015,33.8316659 86.8899989,33.6183347 87.1,33.355 C87.310001,33.0916654 87.4699994,32.793335 87.58,32.46 C87.6900005,32.126665 87.745,31.7900017 87.745,31.45 C87.745,31.0899982 87.6866672,30.7416684 87.57,30.405 C87.4533327,30.0683317 87.2866677,29.771668 87.07,29.515 C86.8533322,29.2583321 86.5966681,29.0533341 86.3,28.9 C86.0033318,28.7466659 85.6750018,28.67 85.315,28.67 C84.9349981,28.67 84.5950015,28.7499992 84.295,28.91 C83.9949985,29.0700008 83.740001,29.2799987 83.53,29.54 C83.3199989,29.8000013 83.1583339,30.096665 83.045,30.43 C82.9316661,30.763335 82.875,31.1033316 82.875,31.45 Z M98.305,29.58 L98.305,35 L97.405,35 L97.405,27.9 L98.105,27.9 L102.505,33.43 L102.505,27.91 L103.405,27.91 L103.405,35 L102.645,35 L98.305,29.58 Z M116.775,29.39 C116.695,29.2966662 116.588334,29.2066671 116.455,29.12 C116.321666,29.0333329 116.171667,28.9550004 116.005,28.885 C115.838332,28.8149997 115.656668,28.7583336 115.46,28.715 C115.263332,28.6716665 115.058334,28.65 114.845,28.65 C114.291664,28.65 113.886668,28.7533323 113.63,28.96 C113.373332,29.1666677 113.245,29.4499982 113.245,29.81 C113.245,30.0033343 113.281666,30.1633327 113.355,30.29 C113.428334,30.4166673 113.543333,30.5249996 113.7,30.615 C113.856667,30.7050005 114.051665,30.783333 114.285,30.85 C114.518334,30.916667 114.794998,30.9866663 115.115,31.06 C115.481668,31.1400004 115.813332,31.2316662 116.11,31.335 C116.406668,31.4383339 116.659999,31.5666659 116.87,31.72 C117.080001,31.8733341 117.239999,32.0599989 117.35,32.28 C117.460001,32.5000011 117.515,32.7699984 117.515,33.09 C117.515,33.4300017 117.448334,33.7249988 117.315,33.975 C117.181666,34.2250013 117.000001,34.4316659 116.77,34.595 C116.539999,34.7583342 116.268335,34.878333 115.955,34.955 C115.641665,35.0316671 115.301668,35.07 114.935,35.07 C114.388331,35.07 113.870002,34.9850009 113.38,34.815 C112.889998,34.6449992 112.445002,34.3966683 112.045,34.07 L112.475,33.31 C112.581667,33.4233339 112.719999,33.5366661 112.89,33.65 C113.060001,33.7633339 113.253332,33.8649996 113.47,33.955 C113.686668,34.0450005 113.919999,34.1183331 114.17,34.175 C114.420001,34.231667 114.681665,34.26 114.955,34.26 C115.461669,34.26 115.854999,34.1700009 116.135,33.99 C116.415001,33.8099991 116.555,33.5400018 116.555,33.18 C116.555,32.979999 116.51,32.8116674 116.42,32.675 C116.33,32.5383327 116.198334,32.4200005 116.025,32.32 C115.851666,32.2199995 115.636668,32.1316671 115.38,32.055 C115.123332,31.978333 114.831668,31.9000004 114.505,31.82 C114.144998,31.7333329 113.828335,31.6400005 113.555,31.54 C113.281665,31.4399995 113.053334,31.3200007 112.87,31.18 C112.686666,31.0399993 112.548334,30.870001 112.455,30.67 C112.361666,30.469999 112.315,30.2300014 112.315,29.95 C112.315,29.6099983 112.378333,29.3100013 112.505,29.05 C112.631667,28.7899987 112.808332,28.5700009 113.035,28.39 C113.261668,28.2099991 113.531665,28.0750005 113.845,27.985 C114.158335,27.8949996 114.498331,27.85 114.865,27.85 C115.345002,27.85 115.778331,27.9233326 116.165,28.07 C116.551669,28.2166674 116.894998,28.4133321 117.195,28.66 L116.775,29.39 Z" id="Sessions"></path>
  </g>
</svg>