
<svg width="431px" height="99px" viewBox="0 0 431 99" version="1.1" xmlns="http://www.w3.org/2000/svg" xmlns:xlink="http://www.w3.org/1999/xlink">
    <g id="Page-1" stroke="none" stroke-width="1" fill="none" fill-rule="evenodd">
        <g id="appknox" fill-rule="nonzero">
            <path d="M58.729,22.278 L58.729,77.844 L51.681,77.844 L51.681,68.294 C48.685,71.937 45.323,74.678 41.594,76.517 C37.865,78.355 33.788,79.275 29.363,79.275 C21.498,79.275 14.782,76.423 9.215,70.72 C3.649,65.017 0.864,58.079 0.864,49.908 C0.864,41.907 3.674,35.063 9.292,29.377 C14.909,23.691 21.668,20.848 29.567,20.848 C34.129,20.848 38.257,21.818 41.952,23.759 C45.646,25.699 48.89,28.611 51.681,32.492 L51.681,22.277 L58.729,22.277 L58.729,22.278 Z M30.153,27.743 C26.174,27.743 22.502,28.721 19.134,30.677 C15.766,32.633 13.088,35.38 11.099,38.917 C9.11,42.454 8.116,46.195 8.116,50.139 C8.116,54.05 9.119,57.791 11.126,61.362 C13.132,64.933 15.827,67.714 19.211,69.703 C22.595,71.693 26.226,72.687 30.103,72.687 C34.014,72.687 37.721,71.701 41.224,69.728 C44.727,67.755 47.421,65.086 49.309,61.719 C51.197,58.353 52.141,54.561 52.141,50.343 C52.141,43.915 50.024,38.542 45.789,34.222 C41.555,29.903 36.343,27.743 30.153,27.743 Z" id="Shape" fill="#343841"></path>
            <path d="M67.51,22.278 L74.66,22.278 L74.66,32.493 C77.483,28.611 80.731,25.7 84.405,23.76 C88.079,21.819 92.177,20.849 96.701,20.849 C104.592,20.849 111.344,23.692 116.956,29.378 C122.568,35.064 125.375,41.908 125.375,49.909 C125.375,58.081 122.594,65.018 117.032,70.721 C111.471,76.424 104.762,79.276 96.905,79.276 C92.482,79.276 88.419,78.356 84.711,76.518 C81.004,74.679 77.652,71.938 74.66,68.295 L74.66,98.172 L67.51,98.172 L67.51,22.278 Z M96.11,27.743 C89.927,27.743 84.722,29.903 80.493,34.222 C76.264,38.542 74.149,43.915 74.149,50.343 C74.149,54.561 75.091,58.353 76.977,61.719 C78.862,65.086 81.562,67.755 85.079,69.728 C88.595,71.701 92.306,72.687 96.213,72.687 C100.051,72.687 103.659,71.693 107.04,69.703 C110.42,67.714 113.112,64.933 115.116,61.362 C117.12,57.792 118.122,54.05 118.122,50.139 C118.122,46.195 117.128,42.453 115.142,38.917 C113.155,35.38 110.48,32.633 107.117,30.677 C103.754,28.721 100.084,27.743 96.11,27.743 Z" id="Shape" fill="#343841"></path>
            <path d="M132.538,22.278 L139.688,22.278 L139.688,32.493 C142.511,28.611 145.759,25.7 149.433,23.76 C153.107,21.819 157.205,20.849 161.729,20.849 C169.62,20.849 176.372,23.692 181.984,29.378 C187.596,35.064 190.403,41.908 190.403,49.909 C190.403,58.081 187.622,65.018 182.06,70.721 C176.499,76.424 169.79,79.276 161.933,79.276 C157.51,79.276 153.447,78.356 149.739,76.518 C146.032,74.679 142.68,71.938 139.688,68.295 L139.688,98.172 L132.538,98.172 L132.538,22.278 Z M161.139,27.743 C154.956,27.743 149.751,29.903 145.522,34.222 C141.293,38.542 139.178,43.915 139.178,50.343 C139.178,54.561 140.12,58.353 142.006,61.719 C143.891,65.086 146.591,67.755 150.108,69.728 C153.624,71.701 157.335,72.687 161.242,72.687 C165.08,72.687 168.688,71.693 172.069,69.703 C175.449,67.714 178.141,64.933 180.145,61.362 C182.149,57.792 183.151,54.05 183.151,50.139 C183.151,46.195 182.157,42.453 180.171,38.917 C178.184,35.38 175.509,32.633 172.146,30.677 C168.782,28.721 165.112,27.743 161.139,27.743 Z" id="Shape" fill="#343841"></path>
            <polygon id="Shape" fill="#FF4D3F" points="197.737 0.828 211.679 0.828 211.679 45.187 232.21 22.278 249.72 22.278 225.782 48.91 252.582 77.845 235.274 77.845 211.678 52.236 211.678 77.845 197.736 77.845 197.736 0.828"></polygon>
            <path d="M256.348,22.278 L270.29,22.278 L270.29,27.973 C273.452,25.307 276.315,23.454 278.883,22.411 C281.449,21.369 284.076,20.848 286.763,20.848 C292.271,20.848 296.946,22.771 300.787,26.619 C304.016,29.888 305.632,34.723 305.632,41.123 L305.632,77.844 L291.843,77.844 L291.843,53.511 C291.843,46.88 291.545,42.476 290.951,40.299 C290.356,38.122 289.319,36.465 287.842,35.325 C286.365,34.185 284.539,33.617 282.365,33.617 C279.546,33.617 277.126,34.561 275.105,36.448 C273.084,38.336 271.682,40.947 270.901,44.28 C270.493,46.014 270.29,49.772 270.29,55.552 L270.29,77.845 L256.348,77.845 L256.348,22.278 Z" id="Shape" fill="#FF4D3F"></path>
            <path d="M406.803,51.697 L428.668,77.846 L411.751,77.846 L398.823,62.702 L385.841,77.846 L369.651,77.846 L390.75,51.511 L375.394,33.81 L338.42,33.81 L338.395,33.915 C334.816,34.272 331.796,35.734 329.343,38.315 C326.495,41.311 325.072,45.227 325.072,50.062 C325.072,54.76 326.512,58.616 329.395,61.629 C332.276,64.643 335.883,66.149 340.214,66.149 C344.648,66.149 348.289,64.66 351.136,61.68 C353.984,58.701 355.408,54.828 355.408,50.062 C355.408,45.599 354.121,41.909 351.58,38.967 L367.284,38.967 C368.728,42.494 369.453,46.208 369.453,50.113 C369.453,55.322 368.159,60.175 365.571,64.669 C362.983,69.163 359.383,72.722 354.769,75.343 C350.156,77.965 345.227,79.276 339.984,79.276 C332.732,79.276 326.314,76.756 320.73,71.717 C314.363,65.929 311.179,58.694 311.179,50.011 C311.179,41.907 313.996,35.022 319.631,29.353 C325.266,23.684 332.068,20.849 340.034,20.849 C340.68,20.849 341.317,20.87 341.949,20.907 L382.385,20.907 L398.73,40.506 L413.947,22.28 L430.137,22.28 L406.803,51.697 Z" id="Shape" fill="#FF4D3F"></path>
        </g>
    </g>
</svg>