<svg viewBox="0 0 327 409" version="1.1" xmlns="http://www.w3.org/2000/svg" xmlns:xlink="http://www.w3.org/1999/xlink">
    <g id="Page-1" stroke="none" stroke-width="1" fill="none" fill-rule="evenodd">
        <path d="M293.422845,198.290069 C313.831545,218.515269 326.480145,246.558069 326.480145,277.561269 C326.480145,291.148769 324.045245,304.165569 319.600245,316.207269 C313.866545,331.740169 304.770345,345.639769 293.204345,357.040969 C265.928245,387.025269 223.251645,408.135769 169.036545,408.135769 L0.509044707,408.135769 L0.509044707,0.512368992 L175.443245,0.512368992 C286.534245,0.512368992 350.563445,114.958469 283.402745,189.502369 C286.912545,192.238069 290.266345,195.162369 293.422845,198.290069 Z M78.3810447,382.988369 C78.3785447,383.002169 78.3747447,383.015869 78.3710447,383.030869 C84.0672447,387.630769 91.3067447,390.391469 99.1830447,390.391469 C117.486545,390.391469 132.377545,375.500369 132.377545,357.196869 L132.377545,344.775569 L164.527045,390.251569 L231.218345,390.251569 L205.890145,356.320369 L231.218345,322.483969 L164.900445,322.483969 L164.900445,350.103469 L145.374445,322.483969 L115.905745,322.483969 L115.905745,337.548569 C115.905745,338.681069 115.787145,339.782369 115.574945,340.851169 L115.574945,340.947369 C114.015345,348.641369 107.200445,354.452469 99.0531447,354.452469 L99.0431447,354.452469 L99.0331447,354.452469 C90.8846447,354.452469 84.0697447,348.641369 82.5101447,340.947369 L82.5101447,340.851169 C82.2979447,339.782369 82.1793447,338.681069 82.1793447,337.548569 L82.1793447,322.483969 L75.7963447,322.483969 L69.0126447,322.483969 L65.9609447,322.483969 L65.9609447,343.867869 C63.1715447,331.561469 52.0963447,322.483969 38.9957447,322.483969 L18.0439447,322.483969 L15.7002447,322.483969 L15.7002447,390.254069 L18.0439447,390.254069 L17.9702447,390.155469 L39.2854447,390.155469 L39.2854447,377.297169 C52.2873447,377.297169 63.1965447,368.098569 65.9609447,355.961969 L65.9609447,357.109469 C65.9609447,367.576669 70.8106447,376.906369 78.3810447,382.988369 Z" id="Combined-Shape" fill="#231F20"></path>
    </g>
</svg>