<?xml version="1.0" encoding="utf-8"?>
<!-- Generator: Adobe Illustrator 22.0.1, SVG Export Plug-In . SVG Version: 6.00 Build 0)  -->
<svg version="1.1" id="Layer_1" xmlns="http://www.w3.org/2000/svg" xmlns:xlink="http://www.w3.org/1999/xlink" x="0px" y="0px"
	 viewBox="0 0 841.9 217.3" style="enable-background:new 0 0 841.9 217.3;" xml:space="preserve">
<style type="text/css">
	.st0{fill:#4F455F;}
	.st1{opacity:0.52;fill:#82729A;enable-background:new    ;}
</style>
<g id="Text">
	<path class="st0" d="M120.4,80.7c-8.7-11.2-22.9-17.5-37-17.5c-34.4,0-57.1,27.5-57.1,62.3c0,32.2,21.4,59.7,57.1,59.7
		c17.5,0,30.9-7.8,40-20.6l17.5,13.2c-4.5,6.3-22.9,26.8-58,26.8c-48.7,0-78.7-40.7-78.7-79.2c0-47.6,32.7-81.8,79.8-81.8
		c20.1,0,41.3,7.6,53.6,23.8L120.4,80.7z"/>
	<path class="st0" d="M213.1,47.6h18.8l65.5,153.1h-24.2l-15.4-37.9h-72.9l-15.1,37.9h-24.2L213.1,47.6z M250.3,144.7l-28.6-70.3
		h-0.4l-29,70.3H250.3z"/>
	<path class="st0" d="M317.3,47.6h53.9c39.2,0,49.1,23.6,49.1,42.8c0,19.5-14.5,37.9-37.6,40.4l43.5,69.9h-26l-38.9-67.5h-23.1v67.5
		h-20.8V47.6H317.3z M338.1,115.1h27.3c16.4,0,32.9-3.9,32.9-24.7s-16.4-24.7-32.9-24.7h-27.3V115.1z"/>
	<path class="st0" d="M445,47.6h53.4c64.7,0,80.5,48.2,80.5,76.6c0,39.2-29.2,76.6-83.9,76.6h-50L445,47.6L445,47.6z M465.8,181.3
		H492c35,0,64.9-19.2,64.9-57.1c0-19.5-10.2-57.1-59.9-57.1h-31.1v114.2H465.8z"/>
	<path class="st0" d="M616.6,12.9v93.9c0,19,9.5,43.7,38.5,43.7s38.5-24.7,38.5-43.7V12.9h20.8V110c0,35.5-25.7,59.9-59.3,59.9
		c-33.5,0-59.3-24.4-59.3-59.9V12.9H616.6z"/>
	<path class="st0" d="M737.9,46.6H789c39.2,0,50.2,23.6,50.2,42.8c0,21.5-15.1,42.8-50.2,42.8h-30.4v67.5h-20.8V46.6H737.9z
		 M758.7,114.1h24.5c16.4,0,34-3.9,34-24.7s-17.6-24.7-34-24.7h-24.5V114.1z"/>
</g>
<g id="Shadow">
	<path class="st1" d="M702.6,194.3c0,4-21.6,7.2-48.2,7.2c-26.6,0-48.2-3.2-48.2-7.2s21.6-7.2,48.2-7.2
		C681.1,187.1,702.6,190.3,702.6,194.3z"/>
</g>
</svg>
