
<svg width="136px" height="37px" viewBox="0 0 136 37" version="1.1" xmlns="http://www.w3.org/2000/svg" xmlns:xlink="http://www.w3.org/1999/xlink">
    <g id="Abstract-graph" stroke="none" stroke-width="1" fill="none" fill-rule="evenodd">
        <g id="Desktop-HD" transform="translate(-989.000000, -452.000000)" fill-rule="nonzero">
            <g id="Portfolio-content" transform="translate(220.000000, 391.000000)">
                <g id="coveiot_logo" transform="translate(769.000000, 61.000000)">
                    <path d="M23.0607938,15.3267427 C22.6819628,12.6908017 22.098476,11.1180974 20.9663373,9.58969461 C19.2669124,7.42292574 16.6934806,6.15699413 13.9688494,6.14746573 C10.9855644,6.12552674 8.20666718,7.68689658 6.63607436,10.267508 C5.04237146,12.8591475 4.2063306,16.4697222 4.2063306,20.5941946 C4.2063306,29.4545006 8.39524368,35.2978724 14.7265115,35.2978724 C19.3769888,35.2978724 23.1478814,32.4094127 24.7851281,27.6071268 L26,28.160896 C25.0768715,30.624061 24.0318205,32.3252398 22.5643946,33.7694696 C20.4263942,35.8516415 17.2433428,36.9990512 13.5551834,36.9990512 C9.9119766,37.0433748 6.41709343,35.5330459 3.91894155,32.8347074 C1.30631385,29.986119 0,26.1185954 0,21.4049126 C0,15.4552172 2.13800033,10.3959825 5.90889298,7.59169561 C8.21407935,5.8989641 10.9866272,4.99178159 13.8295093,5.0000561 C15.6392237,5.0384821 17.4329674,5.35359349 19.150561,5.93481839 C21.1187406,6.57276042 21.5411154,6.65693332 22.2508792,6.65693332 C22.8387205,6.65693332 23.0477307,6.57276042 24.428069,6.06329282 L24.428069,15.3267427 L23.0607938,15.3267427 Z" id="Shape" fill="#848484"></path>
                    <path d="M80.6644344,11.1519718 C79.6992284,8.38816901 79.1096229,7.27915493 78.1444169,6.64169014 C77.6814675,6.30112676 77.4281555,6.20507042 76,6.00422535 L76,5 L87.0103363,5 L87.0103363,6.02169014 C85.7001019,6.10464789 85.4118503,6.14830986 84.8659193,6.36225352 C84.23784,6.5556096 83.8219227,7.15140693 83.8570389,7.80746479 C83.8570389,8.44492958 84.1103509,9.42295775 84.7305285,11.3004225 L91.7926918,31.8914085 L98.8548551,11.7239437 C99.4837677,9.89450704 99.6934052,9.04309859 99.6934052,8.23098592 C99.6934052,6.74211268 98.7675062,6.18760563 96.0378512,6.01732394 L96.0378512,5 L106,5 L106,6.02169014 C104.571845,6.19197183 103.938565,6.45830986 103.182996,7.17 C102.309506,7.97774648 101.436017,9.55394366 100.562527,11.8505634 L91.8844082,36 L89.3643907,36 L80.6644344,11.1519718 Z" id="Shape" fill="#848484"></path>
                    <path d="M110.004468,34.9908399 C111.639801,34.9908399 112.600447,34.7767756 113.029386,34.3486471 C113.556625,33.8331454 113.556625,33.7938275 113.654924,30.5828636 L113.654924,10.434611 C113.556625,7.69546223 113.556625,7.65177565 113.413645,7.26733371 C113.078536,6.36739008 112.21172,6.02663472 110,6.02663472 L110,5 L134.261901,5 L135.043822,12.6451522 L133.649768,12.7325254 C132.496993,7.55566516 130.71868,6.27127959 124.566077,6.27127959 L117.935384,6.27127959 L117.935384,19.2767756 L122.886063,19.2767756 C128.221,19.2767756 129.141433,18.6782694 129.659735,14.9081172 L131.000172,14.9081172 L131.000172,24.9560316 L129.659735,24.9560316 C129.324626,22.9901353 128.985049,22.1731962 128.319299,21.535372 C127.653549,20.8975479 125.72332,20.5524239 122.890531,20.5524239 L117.935384,20.5524239 L117.935384,34.7156144 L125.531191,34.7156144 C131.585496,34.7156144 133.314659,33.3045378 134.659563,27.3981116 L136,27.4854848 L135.039354,36 L110.017872,36 L110.004468,34.9908399 Z" id="Shape" fill="#848484"></path>
                    <rect id="Rectangle-path" fill="#9C108C" x="112" y="0" width="21" height="2"></rect>
                    <path d="M43,24.7590551 L51.4205195,21 L60,24.7590551 L60,28.1456693 C60,28.1456693 58.7062338,31.6838583 51.4116883,32 C47.6981818,32 43.4636364,29.7826772 43.0220779,28.1759843 C43.0176623,27.0846457 43,25.9283465 43,24.7590551 Z" id="Shape" fill="#9C108C"></path>
                    <polygon id="Shape" fill="#9C108C" points="50 33 52 33 51.6172608 37 50.4878049 37"></polygon>
                    <path d="M50,21.1274878 C49.1325301,20.7398769 39.8028916,16.709558 32,20.8649127 C35.3657831,26.0247212 40.1498795,26.8041107 41.9195181,27 C41.9195181,26.1414212 41.9195181,24.9369102 41.9195181,24.9369102 C44.5417958,23.5321239 47.2390002,22.2605672 50,21.1274878 Z" id="Shape" fill="#D694C6"></path>
                    <path d="M41.1808757,17.9881223 L41.1808757,12.4248908 L44.7732915,7.41842795 L50.906152,4.72366812 L57.2267085,7.52532751 L60.7187287,12.5006114 L60.7187287,17.9703057 L64.9833583,17.9703057 C64.9833583,17.9703057 64.9833583,14.5272489 67,11.9661135 C65.4248892,11.5210401 63.9166774,10.8586831 62.5171191,9.99737991 C61.2338017,8.71458515 61.4520529,8.37161572 59.6143773,4.72366812 C56.8382213,3.52995633 55.0878461,2.39860262 50.914882,1 C47.2919111,2.48768559 45.7466921,3.22707424 42.4161779,4.66576419 C41.3161915,7.01310044 40.543582,8.67449782 39.4086755,10.0107424 C38.5356704,11.0351965 37.8023462,11.0530131 35,11.9482969 C36.0214159,14.0640175 36.7460101,14.5317031 37.0166417,17.9881223 C38.8936025,18.0148472 40.2729505,17.9881223 41.1808757,17.9881223 Z" id="Shape" fill="#9C108C"></path>
                    <polygon id="Shape" fill="#EFCEE7" points="42 17.3985401 42 12.1649635 45.7658467 7.32554745 51.410123 5 57.301561 7.31678832 61 12.1649635 61 17.3810219 51.3921476 20"></polygon>
                    <path d="M52,21.1274878 C52.8674699,20.7398769 62.1971084,16.709558 70,20.8649127 C66.6342169,26.0247212 61.9759036,26.8041107 60.2062651,27 C60.2062651,26.1414212 60.2062651,24.9369102 60.2062651,24.9369102 C60.2062651,24.9369102 55.5089157,22.4695381 52,21.1274878 Z" id="Shape" fill="#D694C6"></path>
                </g>
            </g>
        </g>
    </g>
</svg>