<svg width="128" height="128" viewBox="0 0 128 128" version="1.1" xmlns="http://www.w3.org/2000/svg" xmlns:xlink="http://www.w3.org/1999/xlink">
<title>logo_white</title>
<desc>Created using Figma</desc>
<g id="Canvas" transform="translate(-10847 549)">
<g id="logo_white">
<g id="Union">
<use xlink:href="#path0_fill" transform="translate(10847 -549)" fill="#4784AF"/>
</g>
<g id="Vector">
<use xlink:href="#path1_fill" transform="translate(10867.9 -502.921)" fill="#FDFDFE"/>
</g>
<g id="Vector">
<use xlink:href="#path2_fill" transform="translate(10891.3 -493.235)" fill="#FDFDFE"/>
</g>
<g id="Vector">
<use xlink:href="#path3_fill" transform="translate(10921.2 -502.11)" fill="#FDFDFE"/>
</g>
<g id="Vector">
<use xlink:href="#path4_fill" transform="translate(10929.9 -493.692)" fill="#FDFDFE"/>
</g>
</g>
</g>
<defs>
<path id="path0_fill" d="M 109.787 15.5645C 134.483 38.6673 134.004 79.0812 108.716 105.831C 83.4302 132.582 42.9104 135.538 18.2131 112.436C -6.48326 89.3327 -6.00362 48.9188 19.2836 22.1686C 44.5698 -4.58158 85.0896 -7.53836 109.787 15.5645Z"/>
<path id="path1_fill" d="M 21.8413 33.8526L 21.8413 36.1961L 1.34032e-07 36.1961L 1.34032e-07 6.68413e-07L 21.3801 6.68413e-07L 21.3801 2.34357L 2.60883 2.34357L 2.60883 16.5802L 18.0862 16.5802L 18.0862 18.823L 2.60883 18.823L 2.60883 33.8613L 21.8413 33.8526Z"/>
<path id="path2_fill" d="M 11.0897 26.5108L -8.04194e-07 9.35778e-07L 2.65714 9.35778e-07L 12.4732 23.9789L 22.3376 0.0175234L 24.8498 0.0175234L 13.7601 26.5284L 11.0897 26.5108Z"/>
<path id="path3_fill" d="M 0 2.86047L 0 0L 2.55613 0L 2.55613 2.85171L 0 2.86047ZM 0 35.3858L 0 8.87491L 2.55613 8.87491L 2.55613 35.3858L 0 35.3858Z"/>
<path id="path4_fill" d="M 25.0522 8.38594C 24.4324 6.78358 23.5128 5.31337 22.3424 4.05361C 21.1712 2.80483 19.7635 1.79987 18.2007 1.09677C 16.571 0.378023 14.8095 0.00456664 13.0275 4.24305e-05C 11.2456 -0.00448178 9.48219 0.360026 7.84884 1.07049C 6.29408 1.76248 4.89462 2.75907 3.73356 4.00105C 1.31328 6.61722 -0.0210029 10.0522 0.0003859 13.6119C -0.0130293 15.4433 0.325389 17.2604 0.997359 18.9649C 1.64594 20.5944 2.59152 22.09 3.78627 23.376C 4.9583 24.6488 6.37596 25.6724 7.95425 26.3854C 9.59178 27.1234 11.3707 27.497 13.1675 27.4806C 14.3773 27.4823 15.5817 27.3187 16.747 26.9943C 17.8667 26.688 18.9404 26.2343 19.9399 25.6451C 20.8888 25.0862 21.7501 24.391 22.4961 23.5819C 22.9357 23.1019 23.3202 22.5744 23.6424 22.0093L 21.0994 21.6939C 20.9146 21.9448 20.7151 22.1847 20.5021 22.4123C 19.9022 23.0449 19.2126 23.5865 18.4555 24.02C 17.6757 24.4684 16.8438 24.82 15.9784 25.0669C 15.0976 25.3207 14.1853 25.449 13.2685 25.448C 11.9079 25.4597 10.5603 25.1819 9.31576 24.6332C 8.10078 24.0982 6.99923 23.337 6.07009 22.3904C 5.10738 21.4007 4.32159 20.254 3.74674 18.9999C 3.12625 17.6598 2.76278 16.2156 2.6751 14.7421L 2.6224 12.7007C 2.70939 11.2352 3.04656 9.79525 3.61937 8.44289C 4.14578 7.18807 4.90921 6.04592 5.86806 5.07865C 6.8 4.14879 7.90169 3.40534 9.11373 2.8884C 10.3598 2.36697 11.6976 2.09841 13.0489 2.09841C 14.4003 2.09841 15.738 2.36697 16.9841 2.8884C 18.1961 3.40543 19.2978 4.14887 20.2298 5.07865C 21.1898 6.04604 21.9691 7.17637 22.5312 8.4166C 23.1427 9.76795 23.4986 11.2204 23.5809 12.7007L 9.42556 12.7007L 9.42556 14.7421L 25.9745 14.7421C 26.0208 14.5844 26.0386 14.4197 26.0272 14.2558L 26.0272 13.6163C 26.0352 11.8272 25.7044 10.0526 25.0522 8.38594Z"/>
</defs>
</svg>
