<?xml version="1.0" encoding="utf-8"?>
<!-- Generator: Adobe Illustrator 23.0.4, SVG Export Plug-In . SVG Version: 6.00 Build 0)  -->
<svg version="1.1" id="Layer_1" xmlns="http://www.w3.org/2000/svg" xmlns:xlink="http://www.w3.org/1999/xlink" x="0px" y="0px"
	 viewBox="0 0 2200 800" style="enable-background:new 0 0 2200 800;" xml:space="preserve">
<style type="text/css">
	.st0{fill:#375AE6;}
</style>
<g>
	<path class="st0" d="M950.5,283.5c-1.6,0-2.8,1.3-2.8,2.8v227.2c0,1.6,1.3,2.8,2.8,2.8c1.6,0,2.8-1.3,2.8-2.8V286.4
		C953.3,284.8,952.1,283.5,950.5,283.5z"/>
	<path class="st0" d="M1099.5,399.5c-7.5-5.7-11.8-8-20.9-12.5l-12.3-6.4c-2.5-1.4-5.5-3.4-9.1-5.9c-7-5.4-9.3-10.9-9.3-18.4
		c0-10.7,8.2-19.8,19.1-19.8c10.7,0,17.9,3.9,25.2,16.8l16.1-10.5c-8.4-16.4-20.2-25.4-41.3-25.4c-10.7,0-19.8,3.9-27.5,11.6
		c-7.7,7.7-11.6,17.3-11.6,28.9c0,11.8,3.6,20.7,11.8,27.9c8.2,7,14.3,10.7,26.8,16.4c19.1,9.1,30,17,30,30.9c0,7.5-2,13.9-6.1,18.9
		c-5.2,6.1-12.3,9.1-21.6,9.1c-18.9,0-27.9-12.7-34.1-34.3l-17.3,10.4c2.7,12.5,8.6,23,17.9,30.9c9.3,7.9,20.4,12,33.4,12
		c14.5,0,26.4-5,35.4-15c8.2-8.9,12.3-19.8,12.3-32.5C1115.8,416.8,1110.2,407.5,1099.5,399.5z"/>
	<path class="st0" d="M1241,367.1c-12.3,0-24.5,5-31.8,15.5c-7.3-10.5-19.5-15.5-31.8-15.5c-22.3,0-39.1,16.8-39.1,37.3v74.1h20
		v-69.5c0-13.9,7.7-22.7,19.5-22.7c13,0,21.4,7.3,21.4,25.9v66.3h20V412c0-18.6,8.4-25.9,21.4-25.9c11.8,0,19.5,8.9,19.5,22.7v69.5
		h20v-74.1C1280.1,383.9,1263.3,367.1,1241,367.1z"/>
	<path class="st0" d="M1352.9,367.1c-35,0-56.3,24.5-56.3,55.7c0,32,22.3,57.9,53.6,57.9c13.9,0,21.6-4.6,29.5-10.5v-23.6
		c-6.8,8.6-16.1,15-27.5,15c-20.9,0-35.7-17-35.7-37.3c0-20.7,13.9-38.2,35.9-38.2c18.2,0,35.4,10.5,35.4,30.9v61.3h20v-59.5
		C1407.9,387.5,1386.5,367.1,1352.9,367.1z"/>
	<path class="st0" d="M1448,381.8h-0.5v-12.5h-19.1v109.1h20v-50.9c0-29.5,11.4-41.4,30.7-41.4h3v-19.1h-4.5
		C1464.1,367.1,1454.8,371.1,1448,381.8z"/>
	<path class="st0" d="M1513.2,342.1h-20v101.1c0,21.6,11.8,35.2,32.3,35.2h26.8v-19.1h-24.1c-10.2,0-15-3.4-15-13.6v-57.2h39.1
		v-19.1h-39.1V342.1z"/>
	<polygon class="st0" points="1657.4,386.1 1588.3,386.1 1588.3,319.3 1567,319.3 1567,478.4 1588.3,478.4 1588.3,406.1 
		1657.4,406.1 1657.4,478.4 1678.8,478.4 1678.8,319.3 1657.4,319.3 	"/>
	<path class="st0" d="M1754.8,367.1c-30.2,0-56.6,23.2-56.6,56.8c0,33.6,26.3,56.8,56.6,56.8c30.2,0,56.6-23.2,56.6-56.8
		C1811.3,390.2,1785,367.1,1754.8,367.1z M1754.8,461.6c-20.7,0-35.7-15.4-35.7-37.7c0-22.3,15-37.7,35.7-37.7
		c20.7,0,35.7,15.4,35.7,37.7C1790.4,446.1,1775.4,461.6,1754.8,461.6z"/>
	<path class="st0" d="M1930.7,367.1c-12.3,0-24.5,5-31.8,15.5c-7.3-10.5-19.5-15.5-31.8-15.5c-22.3,0-39.1,16.8-39.1,37.3v74.1h20
		v-69.5c0-13.9,7.7-22.7,19.5-22.7c12.9,0,21.4,7.3,21.4,25.9v66.3h20V412c0-18.6,8.4-25.9,21.4-25.9c11.8,0,19.5,8.9,19.5,22.7
		v69.5h20v-74.1C1969.7,383.9,1952.9,367.1,1930.7,367.1z"/>
	<path class="st0" d="M2079.8,427.5c-4.1,20-12.9,34.1-36.6,34.1c-20.7,0-35.7-15.4-35.7-37.7c0-22.3,15-37.7,35.7-37.7
		c12.3,0,17.9,3.6,24.8,10.4l-53.8,30l8.2,15.9l73.6-40.9c-10.2-21.1-27.3-34.5-52.7-34.5c-30.2,0-56.6,23.2-56.6,56.8
		c0,33.6,26.4,56.8,56.6,56.8c31.4,0,54.5-21.8,56.8-50.7L2079.8,427.5z"/>
	<path class="st0" d="M619.3,367.1c-30.2,0-56.6,23.2-56.6,56.8c0,33.6,26.4,56.8,56.6,56.8c30.2,0,56.6-23.2,56.6-56.8
		C675.9,390.2,649.6,367.1,619.3,367.1z M619.3,461.6c-20.7,0-35.7-15.4-35.7-37.7c0-22.3,15-37.7,35.7-37.7
		c20.7,0,35.7,15.4,35.7,37.7C655,446.1,640,461.6,619.3,461.6z"/>
	<path class="st0" d="M795.3,367.1c-12.3,0-24.5,5-31.8,15.5c-7.3-10.5-19.5-15.5-31.8-15.5c-22.3,0-39.1,16.8-39.1,37.3v74.1h20
		v-69.5c0-13.9,7.7-22.7,19.5-22.7c12.9,0,21.4,7.3,21.4,25.9v66.3h20V412c0-18.6,8.4-25.9,21.4-25.9c11.8,0,19.5,8.9,19.5,22.7
		v69.5h20v-74.1C834.3,383.9,817.5,367.1,795.3,367.1z"/>
	<path class="st0" d="M871.5,333c-7.7,0-12,5.9-12,12c0,6.1,4.3,12,12,12c7.7,0,12-5.9,12-12C883.5,338.9,879.2,333,871.5,333z"/>
	<rect x="861.5" y="369.3" class="st0" width="20" height="109.1"/>
	<path class="st0" d="M242,258c-78.3,0-142,63.7-142,142c0,78.3,63.7,142,142,142s142-63.7,142-142C384,321.7,320.3,258,242,258z
		 M203.9,509.2c-12.3-4.3-23.7-10.7-33.8-18.6v-47.5l70.7-51.6l23.2,16.4l-60.1,43.9V509.2z M242,515.7c-5.1,0-10.1-0.4-15.1-1
		v-51.2l70.7-51.6l49.9,35.5C329.4,487.6,288.9,515.7,242,515.7z M355.1,424.6l-57.5-41.2l-14,10.3L240.8,363l-93.7,68.4v34.6
		c-13.1-18.7-20.8-41.5-20.8-66.1c0-63.8,51.9-115.7,115.7-115.7c63.8,0,115.7,51.9,115.7,115.7
		C357.7,408.4,356.8,416.6,355.1,424.6z"/>
	<path class="st0" d="M501.8,367.1c-11.6,0-21.8,5-27.9,11.8v-58.5l-20,14.6v143.4h20v-63.6c0-16.8,12-28.6,26.6-28.6
		c14.3,0,26.6,6.4,26.6,28.6v63.6h20v-63.6C547,378,527,367.1,501.8,367.1z"/>
</g>
</svg>
