<svg xmlns="http://www.w3.org/2000/svg" viewBox="0 0 297.78 91.3"><title>seedplus logoAsset 2</title><g id="Layer_2" data-name="Layer 2"><g id="Layer_1-2" data-name="Layer 1"><path d="M151,42.54V48.4c0,2.59-.1,5.23-.3,7.94a20.69,20.69,0,0,1-1.82,7.34A12.68,12.68,0,0,1,144.26,69c-2.08,1.37-5,2.06-8.87,2.06s-6.82-.69-8.93-2.06a12.18,12.18,0,0,1-4.65-5.35,21.79,21.79,0,0,1-1.76-7.34c-.2-2.71-.29-5.35-.29-7.94V42.54h-23v9q0,20.69,9.52,30.2t29.15,9.52q19.62,0,29.09-9.52t9.46-30.2v-9Z" style="fill:#35176c"/><rect x="96.72" y="0.22" width="23.03" height="23.03" style="fill:#35176c"/><circle cx="162.44" cy="11.73" r="11.73" style="fill:#35176c"/><path d="M23,34.42H56.29V.22h23V88.83h-23V52.28H23V88.83H0V.22H23Z" style="fill:#35176c"/><path d="M214.36.22V88.83h-23V.22Z" style="fill:#35176c"/><rect x="274.53" y="42.54" width="23.04" height="46.29" style="fill:#35176c"/><circle cx="244.45" cy="11.73" r="11.73" style="fill:#35176c"/><circle cx="286.05" cy="11.73" r="11.73" style="fill:#35176c"/><rect x="232.93" y="42.54" width="23.04" height="46.29" style="fill:#35176c"/></g></g></svg>