<?xml version="1.0" encoding="UTF-8"?>
<svg width="287px" height="153px" viewBox="0 0 287 153" version="1.1" xmlns="http://www.w3.org/2000/svg" xmlns:xlink="http://www.w3.org/1999/xlink">
    <!-- Generator: Sketch 48.2 (47327) - http://www.bohemiancoding.com/sketch -->
    <title>Combined Shape</title>
    <desc>Created with Sketch.</desc>
    <defs></defs>
    <g id="Page-1" stroke="none" stroke-width="1" fill="none" fill-rule="evenodd">
        <path d="M0.8107,152.5377 L286.4321,152.5377 L286.4321,0.0575 L0.8107,0.0575 L0.8107,152.5377 Z M66.0597,65.6057 L66.0597,80.072 L56.7242,80.072 L56.7242,44.1164 L66.0597,44.1164 L66.0597,57.554 L76.7809,44.1164 L88.0131,44.1164 L73.9076,61.555 L88.8357,80.072 L77.6526,80.072 L66.0597,65.6057 Z M102.5813,44.1164 L108.3778,56.2731 L114.1713,44.1164 L124.6865,44.1164 L113.0445,66.9415 L113.0445,80.0719 L103.709,80.0719 L103.709,66.9415 L92.0669,44.1164 L102.5813,44.1164 Z M139.3068,65.6057 L139.3068,80.072 L129.972,80.072 L129.972,44.1164 L139.3068,44.1164 L139.3068,57.554 L150.0257,44.1164 L161.2579,44.1164 L147.1546,61.555 L162.0799,80.072 L150.8975,80.072 L139.3068,65.6057 Z M167.2982,80.0718 L167.2982,44.1132 L176.6338,44.1132 L176.6338,71.8639 L191.6118,71.8639 L191.6118,80.0718 L167.2982,80.0718 Z M204.6193,62.1278 C204.6193,64.6523 205.3832,66.7528 206.8418,68.3654 C208.3004,69.978 210.244,70.8207 212.5341,70.8207 C214.8236,70.8207 216.7671,69.978 218.2257,68.3654 C219.6843,66.7528 220.4453,64.6523 220.4453,62.1278 C220.4453,59.6056 219.6843,57.5021 218.2257,55.8895 C216.7671,54.277 214.8236,53.4372 212.5341,53.4372 C210.244,53.4372 208.3004,54.277 206.8418,55.8895 C205.3832,57.5021 204.6193,59.6056 204.6193,62.1278 M194.5578,62.1278 C194.5578,57.0112 196.2924,52.7373 199.6916,49.3031 C203.1637,45.8653 207.4666,44.1166 212.5341,44.1166 C217.6009,44.1166 221.9039,45.8653 225.306,49.3031 C228.7759,52.7373 230.5134,57.0112 230.5134,62.1278 C230.5134,67.2437 228.7759,71.5206 225.3759,74.9555 C221.9738,78.3897 217.6709,80.0722 212.5341,80.0722 C207.3967,80.0722 203.0938,78.3897 199.6916,74.9555 C196.2924,71.5206 194.5578,67.2437 194.5578,62.1278 M62.3581,95.5697 L62.3581,93.9081 L66.6469,93.9081 L66.6469,97.6911 C65.6472,98.9198 64.0027,99.7187 62.1722,99.7187 C60.6526,99.7187 59.3769,99.1958 58.317,98.1671 C57.2563,97.1213 56.7335,95.7996 56.7335,94.187 C56.7335,92.5395 57.2563,91.188 58.2992,90.1571 C59.3598,89.1291 60.6816,88.6055 62.283,88.6055 C64.0815,88.6055 65.4791,89.2823 66.4929,90.6331 L65.2932,91.8656 C64.5575,90.8049 63.5586,90.282 62.312,90.282 C61.2513,90.282 60.3595,90.6509 59.6536,91.3888 C58.9619,92.1267 58.6071,93.0624 58.6071,94.187 C58.6071,95.2908 58.9619,96.2146 59.6678,96.9525 C60.3915,97.6732 61.2974,98.0421 62.3901,98.0421 C63.3429,98.0421 64.1566,97.7521 64.8335,97.1533 L64.8335,95.5697 L62.3581,95.5697 M75.5755,96.3048 L70.4239,96.3048 C70.502,97.4294 71.2868,98.1353 72.4084,98.1353 C73.2221,98.1353 73.867,97.7805 74.3438,97.0746 L75.5287,98.1814 C74.7298,99.2101 73.684,99.7188 72.4084,99.7188 C71.2868,99.7188 70.3629,99.364 69.6712,98.644 C68.9802,97.9203 68.6254,96.9816 68.6254,95.831 C68.6254,94.7071 68.9482,93.7535 69.5782,92.9866 C70.2231,92.2168 71.0867,91.833 72.1466,91.833 C74.5907,91.833 75.5897,93.7855 75.5897,95.6919 L75.5755,96.3048 M70.5169,94.9071 L73.7302,94.9071 C73.713,94.1224 73.2221,93.4314 72.1615,93.4314 C71.2406,93.4314 70.6858,94.0934 70.5169,94.9071 M77.5538,96.8888 L77.5538,93.5856 L76.45,93.5856 L76.45,92.0191 L77.5538,92.0191 L77.5538,89.9126 L79.2914,89.9126 L79.2914,92.0191 L81.0899,92.0191 L81.0899,93.5856 L79.2914,93.5856 L79.2914,96.6299 C79.2914,97.7196 79.5383,97.9956 80.5201,97.9956 L81.0899,97.9666 L81.0899,99.536 C80.8601,99.5501 80.5521,99.565 80.1512,99.565 C78.2017,99.565 77.5538,98.8413 77.5538,96.8888 M89.6959,102.5312 L87.8512,102.5312 L89.019,99.6401 L86.0378,92.019 L88.0372,92.019 L90.0038,97.4585 L92.0002,92.019 L93.9058,92.019 L89.6959,102.5312 Z M101.2216,92.9722 C101.9743,93.7249 102.3581,94.6606 102.3581,95.7845 C102.3581,96.9062 101.9743,97.8419 101.2216,98.5969 C100.4689,99.3496 99.5636,99.7185 98.4703,99.7185 C97.3776,99.7185 96.4568,99.3496 95.704,98.5969 C94.9491,97.8419 94.5801,96.9062 94.5801,95.7845 C94.5801,94.6606 94.9491,93.7249 95.704,92.9722 C96.4568,92.2165 97.3776,91.8334 98.4703,91.8334 C99.5636,91.8334 100.4689,92.2165 101.2216,92.9722 M99.9608,97.476 C100.3618,97.0282 100.5596,96.4763 100.5596,95.7845 C100.5596,95.0935 100.3618,94.5379 99.9608,94.0939 C99.577,93.6461 99.069,93.4311 98.4703,93.4311 C97.2415,93.4311 96.3638,94.4159 96.3638,95.7845 C96.3638,97.1531 97.2415,98.135 98.4703,98.135 C99.069,98.135 99.577,97.92 99.9608,97.476 M105.8304,92.0192 L105.8304,96.5199 C105.8304,97.5218 106.3385,98.1496 107.2452,98.1496 C108.227,98.1496 108.8138,97.3828 108.8138,96.2611 L108.8138,92.0192 L110.5662,92.0192 L110.5662,99.5502 L108.8428,99.5502 L108.8428,98.9343 C108.3668,99.4572 107.7071,99.719 106.8904,99.719 C105.1848,99.719 104.078,98.4895 104.078,96.398 L104.078,92.0192 L105.8304,92.0192 M117.5425,93.5853 C117.4636,93.5704 117.3707,93.5704 117.2635,93.5704 C115.5431,93.5704 114.9421,94.492 114.9421,96.5984 L114.9421,99.5506 L113.1897,99.5506 L113.1897,92.0195 L114.9124,92.0195 L114.9124,92.8325 C115.4182,92.2167 116.188,91.9117 117.2026,91.9117 C117.3097,91.9117 117.4175,91.9117 117.5425,91.9266 L117.5425,93.5853 M124.7335,98.8733 L124.7335,99.5501 L123.0101,99.5501 L123.0101,88.7739 L124.7625,88.7739 L124.7625,92.571 C125.3315,92.0801 126.0382,91.8331 126.869,91.8331 C127.9438,91.8331 128.8215,92.2021 129.5125,92.9548 C130.2042,93.7105 130.5412,94.6455 130.5412,95.785 C130.5412,96.9208 130.2042,97.8595 129.5125,98.6114 C128.8215,99.35 127.9438,99.719 126.869,99.719 C125.9913,99.719 125.2705,99.443 124.7335,98.8733 M128.7605,95.785 C128.7605,94.4305 128.0219,93.3847 126.747,93.3847 C125.4535,93.3847 124.7335,94.4305 124.7335,95.785 C124.7335,97.1357 125.4535,98.1815 126.747,98.1815 C128.0219,98.1815 128.7605,97.1357 128.7605,95.785 M134.0922,92.0192 L134.0922,96.5199 C134.0922,97.5218 134.5972,98.1496 135.5039,98.1496 C136.4887,98.1496 137.0726,97.3828 137.0726,96.2611 L137.0726,92.0192 L138.825,92.0192 L138.825,99.5502 L137.1016,99.5502 L137.1016,98.9343 C136.6256,99.4572 135.9658,99.719 135.1521,99.719 C133.4443,99.719 132.3368,98.4895 132.3368,96.398 L132.3368,92.0192 L134.0922,92.0192 M143.1718,96.4588 C141.6522,96.107 140.8824,95.323 140.8824,94.0794 C140.8824,92.7108 142.0211,91.8331 143.6337,91.8331 C144.7256,91.8331 145.6613,92.2489 146.478,93.0946 L145.3534,94.2913 C144.8944,93.6636 144.3106,93.3415 143.5868,93.3415 C142.9568,93.3415 142.5582,93.6636 142.5582,94.0474 C142.5582,94.4014 142.8029,94.6313 143.2968,94.7533 L144.4787,95.0292 C146.0161,95.384 146.783,96.168 146.783,97.3826 C146.783,98.7512 145.7082,99.7189 143.8018,99.7189 C142.4972,99.7189 141.4514,99.228 140.6815,98.2573 L141.7883,97.1215 C142.3432,97.8415 143.0639,98.2134 143.9416,98.2134 C144.7546,98.2134 145.0945,97.8735 145.0945,97.4436 C145.0945,97.1215 144.8625,96.8887 144.1707,96.7057 L143.1718,96.4588 M148.6425,88.9597 C149.0724,88.5298 149.7783,88.5298 150.2112,88.9597 C150.6418,89.3755 150.6418,90.0813 150.2112,90.5113 C149.7783,90.9412 149.0724,90.9412 148.6425,90.5113 C148.2126,90.0813 148.2126,89.3755 148.6425,88.9597 Z M148.5346,92.0189 L150.2863,92.0189 L150.2863,99.55 L148.5346,99.55 L148.5346,92.0189 Z M154.4502,99.5502 L152.6985,99.5502 L152.6985,92.0192 L154.4212,92.0192 L154.4212,92.6321 C154.898,92.095 155.5428,91.8332 156.3737,91.8332 C158.2332,91.8332 159.3548,93.062 159.3548,95.1684 L159.3548,99.5502 L157.6024,99.5502 L157.6024,95.1684 C157.6024,94.1085 157.0476,93.4168 156.1119,93.4168 C155.0519,93.4168 154.4502,94.1695 154.4502,95.3834 L154.4502,99.5502 M168.0217,96.3048 L162.8701,96.3048 C162.949,97.4294 163.733,98.1353 164.8546,98.1353 C165.6683,98.1353 166.3132,97.7805 166.793,97.0746 L167.9756,98.1814 C167.176,99.2101 166.1302,99.7188 164.8546,99.7188 C163.733,99.7188 162.8092,99.364 162.1182,98.644 C161.4264,97.9203 161.0746,96.9816 161.0746,95.831 C161.0746,94.7071 161.3974,93.7535 162.0274,92.9866 C162.673,92.2168 163.5329,91.833 164.5935,91.833 C167.0369,91.833 168.0366,93.7855 168.0366,95.6919 L168.0217,96.3048 M162.9631,94.9071 L166.1771,94.9071 C166.1622,94.1224 165.6683,93.4314 164.6077,93.4314 C163.6868,93.4314 163.1349,94.0934 162.9631,94.9071 M172.0168,96.4588 C170.4942,96.107 169.7244,95.323 169.7244,94.0794 C169.7244,92.7108 170.8632,91.8331 172.4757,91.8331 C173.5684,91.8331 174.5071,92.2489 175.32,93.0946 L174.1991,94.2913 C173.7372,93.6636 173.1526,93.3415 172.4326,93.3415 C171.7989,93.3415 171.4009,93.6636 171.4009,94.0474 C171.4009,94.4014 171.6449,94.6313 172.1388,94.7533 L173.3214,95.0292 C174.8581,95.384 175.628,96.168 175.628,97.3826 C175.628,98.7512 174.5502,99.7189 172.6475,99.7189 C171.3399,99.7189 170.2941,99.228 169.5265,98.2573 L170.6311,97.1215 C171.186,97.8415 171.909,98.2134 172.7837,98.2134 C173.5974,98.2134 173.9373,97.8735 173.9373,97.4436 C173.9373,97.1215 173.7052,96.8887 173.0165,96.7057 L172.0168,96.4588 M179.2689,96.4588 C177.7463,96.107 176.9795,95.323 176.9795,94.0794 C176.9795,92.7108 178.1153,91.8331 179.7308,91.8331 C180.8205,91.8331 181.7592,92.2489 182.5722,93.0946 L181.4512,94.2913 C180.9893,93.6636 180.4047,93.3415 179.6847,93.3415 C179.0539,93.3415 178.653,93.6636 178.653,94.0474 C178.653,94.4014 178.9,94.6313 179.3909,94.7533 L180.5765,95.0292 C182.1132,95.384 182.8801,96.168 182.8801,97.3826 C182.8801,98.7512 181.8053,99.7189 179.8997,99.7189 C178.592,99.7189 177.5485,99.228 176.7786,98.2573 L177.8862,97.1215 C178.4381,97.8415 179.1611,98.2134 180.0358,98.2134 C180.8525,98.2134 181.1894,97.8735 181.1894,97.4436 C181.1894,97.1215 180.9596,96.8887 180.2686,96.7057 L179.2689,96.4588 M194.8975,92.9722 C195.6503,93.7249 196.0363,94.6606 196.0363,95.7845 C196.0363,96.9062 195.6503,97.8419 194.8975,98.5969 C194.1448,99.3496 193.2388,99.7185 192.1462,99.7185 C191.0565,99.7185 190.1327,99.3496 189.38,98.5969 C188.6273,97.8419 188.2583,96.9062 188.2583,95.7845 C188.2583,94.6606 188.6273,93.7249 189.38,92.9722 C190.1327,92.2165 191.0565,91.8334 192.1462,91.8334 C193.2388,91.8334 194.1448,92.2165 194.8975,92.9722 M193.6368,97.476 C194.0377,97.0282 194.2378,96.4763 194.2378,95.7845 C194.2378,95.0935 194.0377,94.5379 193.6368,94.0939 C193.253,93.6461 192.7442,93.4311 192.1462,93.4311 C190.9167,93.4311 190.0397,94.4159 190.0397,95.7845 C190.0397,97.1531 190.9167,98.135 192.1462,98.135 C192.7442,98.135 193.253,97.92 193.6368,97.476 M199.6306,99.5502 L197.8789,99.5502 L197.8789,92.0192 L199.5986,92.0192 L199.5986,92.6321 C200.0754,92.095 200.7203,91.8332 201.5511,91.8332 C203.4106,91.8332 204.5323,93.062 204.5323,95.1684 L204.5323,99.5502 L202.7799,99.5502 L202.7799,95.1684 C202.7799,94.1085 202.228,93.4168 201.2893,93.4168 C200.2294,93.4168 199.6306,94.1695 199.6306,95.3834 L199.6306,99.5502 M206.807,99.5497 L208.558663,99.5497 L208.558663,88.77344 L206.807,88.77344 L206.807,99.5497 Z M211.1247,88.9597 C211.5546,88.5298 212.2605,88.5298 212.6904,88.9597 C213.124,89.3755 213.124,90.0813 212.6904,90.5113 C212.2605,90.9412 211.5546,90.9412 211.1247,90.5113 C210.6948,90.0813 210.6948,89.3755 211.1247,88.9597 Z M211.0168,92.0189 L212.7685,92.0189 L212.7685,99.55 L211.0168,99.55 L211.0168,92.0189 Z M216.9328,99.5502 L215.1811,99.5502 L215.1811,92.0192 L216.9008,92.0192 L216.9008,92.6321 C217.3776,92.095 218.0254,91.8332 218.8533,91.8332 C220.7128,91.8332 221.8345,93.062 221.8345,95.1684 L221.8345,99.5502 L220.0821,99.5502 L220.0821,95.1684 C220.0821,94.1085 219.5301,93.4168 218.5915,93.4168 C217.5315,93.4168 216.9328,94.1695 216.9328,95.3834 L216.9328,99.5502 M230.5014,96.3048 L225.3528,96.3048 C225.4317,97.4294 226.2126,98.1353 227.3373,98.1353 C228.151,98.1353 228.7959,97.7805 229.2727,97.0746 L230.4575,98.1814 C229.6557,99.2101 228.6129,99.7188 227.3373,99.7188 C226.2126,99.7188 225.2918,99.364 224.6001,98.644 C223.9091,97.9203 223.5543,96.9816 223.5543,95.831 C223.5543,94.7071 223.8771,93.7535 224.5071,92.9866 C225.1527,92.2168 226.0155,91.833 227.0762,91.833 C229.5196,91.833 230.5185,93.7855 230.5185,95.6919 L230.5014,96.3048 M225.4458,94.9071 L228.659,94.9071 C228.6419,94.1224 228.151,93.4314 227.0903,93.4314 C226.1695,93.4314 225.6146,94.0934 225.4458,94.9071" id="Combined-Shape" fill="#4D1367"></path>
    </g>
</svg>