<?xml version="1.0" encoding="UTF-8" standalone="no"?>
<svg
   xmlns:dc="http://purl.org/dc/elements/1.1/"
   xmlns:cc="http://creativecommons.org/ns#"
   xmlns:rdf="http://www.w3.org/1999/02/22-rdf-syntax-ns#"
   xmlns:svg="http://www.w3.org/2000/svg"
   xmlns="http://www.w3.org/2000/svg"
   viewBox="0 0 913.33331 462.66666"
   height="462.66666"
   width="913.33331"
   xml:space="preserve"
   id="svg2"
   version="1.1"><metadata
     id="metadata8"><rdf:RDF><cc:Work
         rdf:about=""><dc:format>image/svg+xml</dc:format><dc:type
           rdf:resource="http://purl.org/dc/dcmitype/StillImage" /></cc:Work></rdf:RDF></metadata><defs
     id="defs6"><clipPath
       id="clipPath18"
       clipPathUnits="userSpaceOnUse"><path
         id="path16"
         d="M 0,347 H 685 V 0 H 0 Z" /></clipPath></defs><g
     transform="matrix(1.3333333,0,0,-1.3333333,0,462.66667)"
     id="g10"><g
       id="g12"><g
         clip-path="url(#clipPath18)"
         id="g14"><g
           transform="translate(261.5684,293.9121)"
           id="g20"><path
             id="path22"
             style="fill:#231f20;fill-opacity:1;fill-rule:nonzero;stroke:none"
             d="m 0,0 v 11.692 h 127.988 v -38.888 l 7.651,-5.865 V 19.341 H -7.65 V 4.811 c 1.525,-0.485 2.97,-1.223 4.248,-2.204 z" /></g><g
           transform="translate(389.5566,177.6221)"
           id="g24"><path
             id="path26"
             style="fill:#231f20;fill-opacity:1;fill-rule:nonzero;stroke:none"
             d="m 0,0 h -127.988 v 11.691 l -3.403,-2.607 c -1.281,-0.979 -2.726,-1.714 -4.248,-2.197 V -7.648 H 7.65 V 44.744 L 0,38.883 Z" /></g><g
           transform="translate(405.1055,248.8359)"
           id="g28"><path
             id="path30"
             style="fill:#fdb934;fill-opacity:1;fill-rule:nonzero;stroke:none"
             d="m 0,0 -57.316,43.925 c -2.756,2.125 -6.448,2.482 -9.563,0.944 -3.105,-1.533 -5.076,-4.697 -5.076,-8.164 v -87.851 c 0,-3.467 1.971,-6.626 5.076,-8.162 1.279,-0.634 2.656,-0.944 4.027,-0.944 1.959,0 3.918,0.641 5.536,1.881 L 0,-14.446 c 2.242,1.722 3.564,4.39 3.564,7.223 C 3.564,-4.384 2.25,-1.725 0,0" /></g><g
           transform="translate(356.1953,248.8359)"
           id="g32"><path
             id="path34"
             style="fill:#f79434;fill-opacity:1;fill-rule:nonzero;stroke:none"
             d="m 0,0 -57.32,43.925 c -2.756,2.125 -6.453,2.482 -9.563,0.944 -3.107,-1.533 -5.078,-4.697 -5.078,-8.164 v -87.851 c 0,-3.467 1.971,-6.626 5.078,-8.162 1.279,-0.634 2.656,-0.944 4.022,-0.944 1.968,0 3.923,0.641 5.541,1.881 L 0,-14.446 c 2.244,1.722 3.561,4.39 3.561,7.223 C 3.561,-4.384 2.244,-1.725 0,0" /></g><g
           transform="translate(312.5996,248.8359)"
           id="g36"><path
             id="path38"
             style="fill:#f37032;fill-opacity:1;fill-rule:nonzero;stroke:none"
             d="m 0,0 -57.318,43.925 c -2.75,2.125 -6.452,2.482 -9.563,0.944 -3.1,-1.533 -5.076,-4.697 -5.076,-8.164 v -87.851 c 0,-3.467 1.976,-6.626 5.076,-8.162 1.279,-0.634 2.658,-0.944 4.031,-0.944 1.959,0 3.918,0.641 5.532,1.881 L 0,-14.446 c 2.248,1.722 3.564,4.39 3.564,7.223 C 3.564,-4.384 2.248,-1.725 0,0" /></g><g
           transform="translate(198.835,155.6084)"
           id="g40"><path
             id="path42"
             style="fill:#231f20;fill-opacity:1;fill-rule:nonzero;stroke:none"
             d="M 0,0 V -56.909 H 11.25 V -71.147 H -18.501 V 0 Z" /></g><g
           transform="translate(238.9844,109.8613)"
           id="g44"><path
             id="path46"
             style="fill:#231f20;fill-opacity:1;fill-rule:nonzero;stroke:none"
             d="M 0,0 C -0.937,8.059 -1.876,18.02 -2.818,29.883 -4.703,16.26 -5.887,6.298 -6.368,0 Z M 9.806,45.747 20.385,-25.4 H 1.478 L 0.485,-12.612 H -6.133 L -7.245,-25.4 h -19.128 l 9.437,71.147 z" /></g><g
           transform="translate(281.0127,143.4355)"
           id="g48"><path
             id="path50"
             style="fill:#231f20;fill-opacity:1;fill-rule:nonzero;stroke:none"
             d="m 0,0 v -18.105 c 0.527,-0.03 0.981,-0.044 1.362,-0.044 1.7,0 2.879,0.418 3.537,1.253 0.661,0.834 0.99,2.57 0.99,5.207 v 5.844 c 0,2.432 -0.381,4.014 -1.143,4.746 C 3.984,-0.366 2.402,0 0,0 M -18.501,12.173 H 0.132 c 5.039,0 8.913,-0.396 11.623,-1.187 2.71,-0.791 4.746,-1.933 6.109,-3.427 1.362,-1.495 2.285,-3.303 2.768,-5.427 0.484,-2.125 0.725,-5.413 0.725,-9.866 v -6.197 c 0,-4.541 -0.468,-7.851 -1.406,-9.931 -0.937,-2.08 -2.659,-3.677 -5.163,-4.79 -2.506,-1.114 -5.779,-1.67 -9.822,-1.67 H 0 v -28.653 h -18.501 z" /></g><g
           transform="translate(327.6221,109.8613)"
           id="g52"><path
             id="path54"
             style="fill:#231f20;fill-opacity:1;fill-rule:nonzero;stroke:none"
             d="M 0,0 C -0.937,8.059 -1.876,18.02 -2.818,29.883 -4.703,16.26 -5.887,6.298 -6.368,0 Z M 9.806,45.747 20.385,-25.4 H 1.478 L 0.485,-12.612 H -6.133 L -7.245,-25.4 h -19.128 l 9.437,71.147 z" /></g><g
           transform="translate(390.3486,134.0752)"
           id="g56"><path
             id="path58"
             style="fill:#231f20;fill-opacity:1;fill-rule:nonzero;stroke:none"
             d="m 0,0 h -17.183 v 5.273 c 0,2.461 -0.219,4.029 -0.659,4.703 -0.439,0.673 -1.172,1.01 -2.197,1.01 -1.113,0 -1.955,-0.454 -2.527,-1.363 -0.571,-0.909 -0.857,-2.287 -0.857,-4.134 0,-2.374 0.32,-4.163 0.963,-5.364 0.613,-1.203 2.356,-2.653 5.229,-4.351 8.235,-4.887 13.422,-8.899 15.561,-12.034 2.139,-3.135 3.208,-8.188 3.208,-15.161 0,-5.068 -0.593,-8.804 -1.78,-11.206 -1.186,-2.402 -3.479,-4.416 -6.877,-6.042 -3.399,-1.626 -7.354,-2.439 -11.865,-2.439 -4.952,0 -9.178,0.938 -12.678,2.812 -3.502,1.875 -5.794,4.263 -6.878,7.163 -1.084,2.901 -1.626,7.017 -1.626,12.349 v 4.658 h 17.183 v -8.657 c 0,-2.666 0.241,-4.38 0.725,-5.142 0.483,-0.762 1.34,-1.142 2.571,-1.142 1.23,0 2.145,0.483 2.746,1.45 0.6,0.967 0.901,2.402 0.901,4.306 0,4.19 -0.571,6.929 -1.714,8.218 -1.172,1.289 -4.058,3.443 -8.657,6.46 -4.6,3.047 -7.647,5.259 -9.141,6.636 -1.494,1.377 -2.732,3.281 -3.714,5.713 -0.981,2.431 -1.471,5.537 -1.471,9.316 0,5.449 0.695,9.434 2.087,11.953 1.391,2.52 3.64,4.49 6.746,5.911 3.105,1.421 6.855,2.132 11.25,2.132 4.804,0 8.898,-0.777 12.283,-2.33 3.383,-1.552 5.625,-3.509 6.723,-5.866 C -0.549,12.474 0,8.467 0,2.813 Z" /></g><g
           transform="translate(419.8633,109.8613)"
           id="g60"><path
             id="path62"
             style="fill:#231f20;fill-opacity:1;fill-rule:nonzero;stroke:none"
             d="M 0,0 C -0.937,8.059 -1.876,18.02 -2.818,29.883 -4.703,16.26 -5.887,6.298 -6.368,0 Z M 9.806,45.747 20.385,-25.4 H 1.478 L 0.485,-12.612 H -6.133 L -7.245,-25.4 h -19.128 l 9.437,71.147 z" /></g><g
           transform="translate(461.8916,143.4355)"
           id="g64"><path
             id="path66"
             style="fill:#231f20;fill-opacity:1;fill-rule:nonzero;stroke:none"
             d="m 0,0 v -15.82 c 2.08,0 3.538,0.286 4.372,0.857 0.836,0.571 1.253,2.424 1.253,5.559 v 3.911 c 0,2.256 -0.403,3.735 -1.208,4.438 C 3.61,-0.352 2.139,0 0,0 m -18.501,12.173 h 13.096 c 8.73,0 14.64,-0.337 17.732,-1.011 3.09,-0.674 5.61,-2.394 7.559,-5.163 1.947,-2.769 2.922,-7.186 2.922,-13.25 0,-5.537 -0.689,-9.258 -2.066,-11.162 -1.377,-1.904 -4.087,-3.047 -8.13,-3.428 3.662,-0.908 6.123,-2.124 7.383,-3.647 1.26,-1.524 2.043,-2.922 2.352,-4.197 0.306,-1.274 0.461,-4.783 0.461,-10.525 V -58.975 H 5.625 v 23.643 c 0,3.809 -0.301,6.167 -0.901,7.075 -0.601,0.908 -2.175,1.362 -4.724,1.362 v -32.08 h -18.501 z" /></g><path
           id="path68"
           style="fill:#231f20;fill-opacity:1;fill-rule:nonzero;stroke:none"
           d="m 286.959,46.003 h 3.003 V 43 h -3.003 z" /><g
           transform="translate(310.2061,50.5293)"
           id="g70"><path
             id="path72"
             style="fill:#231f20;fill-opacity:1;fill-rule:nonzero;stroke:none"
             d="m 0,0 2.842,-0.718 c -0.596,-2.334 -1.668,-4.114 -3.215,-5.339 -1.549,-1.226 -3.44,-1.839 -5.677,-1.839 -2.314,0 -4.196,0.471 -5.647,1.414 -1.449,0.942 -2.554,2.307 -3.311,4.094 -0.757,1.787 -1.135,3.706 -1.135,5.757 0,2.236 0.427,4.187 1.282,5.852 0.854,1.665 2.07,2.929 3.648,3.795 1.576,0.863 3.313,1.296 5.207,1.296 2.149,0 3.955,-0.547 5.42,-1.641 1.465,-1.094 2.485,-2.632 3.062,-4.614 l -2.798,-0.66 c -0.498,1.563 -1.221,2.701 -2.168,3.414 -0.948,0.712 -2.139,1.069 -3.574,1.069 -1.651,0 -3.031,-0.396 -4.139,-1.187 -1.109,-0.791 -1.887,-1.853 -2.336,-3.185 -0.449,-1.334 -0.674,-2.708 -0.674,-4.124 0,-1.826 0.266,-3.421 0.799,-4.782 0.531,-1.364 1.359,-2.381 2.482,-3.055 1.123,-0.674 2.339,-1.011 3.648,-1.011 1.592,0 2.939,0.459 4.043,1.377 1.103,0.918 1.85,2.28 2.241,4.087" /></g><g
           transform="translate(318.6143,53.415)"
           id="g74"><path
             id="path76"
             style="fill:#231f20;fill-opacity:1;fill-rule:nonzero;stroke:none"
             d="m 0,0 c 0,-2.588 0.696,-4.627 2.087,-6.116 1.392,-1.489 3.138,-2.234 5.237,-2.234 2.139,0 3.899,0.752 5.28,2.256 1.382,1.504 2.074,3.638 2.074,6.402 0,1.748 -0.296,3.273 -0.886,4.578 C 13.2,6.188 12.336,7.2 11.198,7.917 10.061,8.636 8.784,8.994 7.368,8.994 5.356,8.994 3.626,8.303 2.175,6.921 0.726,5.539 0,3.232 0,0 m -2.93,0.044 c 0,3.564 0.957,6.354 2.871,8.371 1.914,2.017 4.385,3.025 7.413,3.025 1.982,0 3.769,-0.473 5.361,-1.42 1.592,-0.948 2.806,-2.269 3.639,-3.962 0.836,-1.696 1.253,-3.617 1.253,-5.765 0,-2.178 -0.439,-4.126 -1.318,-5.845 -0.879,-1.719 -2.124,-3.02 -3.735,-3.904 -1.612,-0.884 -3.35,-1.325 -5.215,-1.325 -2.022,0 -3.828,0.488 -5.42,1.465 -1.592,0.976 -2.798,2.309 -3.618,3.999 -0.821,1.689 -1.231,3.476 -1.231,5.361" /></g><g
           transform="translate(339.7959,43)"
           id="g78"><path
             id="path80"
             style="fill:#231f20;fill-opacity:1;fill-rule:nonzero;stroke:none"
             d="M 0,0 V 21.475 H 4.277 L 9.36,6.27 c 0.469,-1.416 0.811,-2.476 1.026,-3.179 0.244,0.781 0.625,1.929 1.142,3.442 l 5.142,14.942 h 3.823 V 0 H 17.754 V 17.974 L 11.514,0 H 8.95 L 2.739,18.281 V 0 Z" /></g></g></g></g></svg>