<?xml version="1.0" encoding="utf-8"?>
<!-- Generator: Adobe Illustrator 20.1.0, SVG Export Plug-In . SVG Version: 6.00 Build 0)  -->
<svg version="1.1" id="Layer_1" xmlns="http://www.w3.org/2000/svg" xmlns:xlink="http://www.w3.org/1999/xlink" x="0px" y="0px"
	 width="176px" height="103.2px" viewBox="0 0 176 103.2" style="enable-background:new 0 0 176 103.2;" xml:space="preserve">
<style type="text/css">
	.st0{fill:#DC242D;}
	.st1{enable-background:new    ;}
	.st2{fill:transparent;}
</style>
<symbol  id="Symbol_1" viewBox="-237.8 -93.4 481.2 165.1">
	<g id="Layer_3_3_">
		<g>
			<g>
				<path class="st0" d="M215,32h22.2c0-1-3.7-6.6-11-16.6c-7.4-10-12.3-16.1-14.6-18.2V-4c3.1-3.5,8.7-11,16.6-22.5
					c7-10.3,11.3-17.3,12.3-19.9l-25.7-0.4c-0.6,2.2-3.2,7.8-7.1,15c-4.3,8-7.6,13.6-9.9,16.8h-1.2c-1.8-2.5-4.8-8-9-16.6
					c-4.1-8.6-6.2-13.7-6.2-15.2h-23c0,1.3,4,7.8,12,19.4s13.5,19.1,16.7,22.2V-4c-2.7,2.9-7.5,9.1-14.5,18.7
					c-7.4,10.2-11.1,16-11.1,17.2h25.9c0-1.4,1.8-5.7,5.5-12.8c3.6-6.9,6.4-11.7,8.3-14.3h1c1.7,2.2,4.3,6.8,7.7,14
					C213.3,26.2,215,30.5,215,32z"/>
			</g>
			<g>
				<path class="st0" d="M237.8-61.1c3.7-3.7,5.6-8.2,5.6-13.4c0-5.2-1.9-9.7-5.6-13.3c-3.7-3.7-8.1-5.6-13.3-5.6s-9.7,1.9-13.4,5.6
					s-5.5,8.1-5.5,13.3c0,5.2,1.8,9.7,5.5,13.4s8.2,5.5,13.4,5.5C229.7-55.6,234.1-57.4,237.8-61.1z"/>
				<path class="st0" d="M237.8-61.1c3.7-3.7,5.6-8.2,5.6-13.4c0-5.2-1.9-9.7-5.6-13.3c-3.7-3.7-8.1-5.6-13.3-5.6s-9.7,1.9-13.4,5.6
					s-5.5,8.1-5.5,13.3c0,5.2,1.8,9.7,5.5,13.4s8.2,5.5,13.4,5.5C229.7-55.6,234.1-57.4,237.8-61.1z"/>
			</g>
			<g>
				<path class="st0" d="M186.3-61.1c3.7-3.7,5.6-8.2,5.6-13.4c0-5.2-1.9-9.7-5.6-13.3c-3.7-3.7-8.1-5.6-13.3-5.6s-9.7,1.9-13.4,5.6
					s-5.5,8.1-5.5,13.3c0,5.2,1.8,9.7,5.5,13.4s8.2,5.5,13.4,5.5C178.2-55.6,182.6-57.4,186.3-61.1z"/>
				<path class="st0" d="M186.3-61.1c3.7-3.7,5.6-8.2,5.6-13.4c0-5.2-1.9-9.7-5.6-13.3c-3.7-3.7-8.1-5.6-13.3-5.6s-9.7,1.9-13.4,5.6
					s-5.5,8.1-5.5,13.3c0,5.2,1.8,9.7,5.5,13.4s8.2,5.5,13.4,5.5C178.2-55.6,182.6-57.4,186.3-61.1z"/>
			</g>
			<g>
				<path class="st0" d="M102.1-71.9c11.7,2.1,11.7,3.8,0,5.2l1,0.2h31l0.8-0.1c0.9-1.8,0.9-3.6,0-5.4c-0.2,0-0.5,0-0.8,0h-31
					C102.7-72.1,102.4-72,102.1-71.9z"/>
			</g>
			<g>
				<path class="st0" d="M98-84.3c-0.2,0-0.4,0-0.5,0c11.3,1.9,11.3,3.4,0,4.5H98h46.5c0.3,0,0.6,0,0.8-0.1c0.9-1.3,0.9-2.8,0-4.3
					c-0.2-0.1-0.5-0.1-0.8-0.1H98z"/>
			</g>
		</g>
		<g class="st1">
			<g>
				<path class="st0" d="M-111.6-46.3h-22c1.2,14,1.7,27.6,1.7,40.8c0,9.9-1.3,16.4-3.8,19.4c-2.5,3-6.6,4.6-12.2,4.6
					c-4.5,0-9.2-1.6-14.2-4.9c-0.2-6.9-0.3-13.1-0.3-18.6c0-9.2,0.2-23,0.5-41.3h-22.2c1.2,15.2,1.8,29.9,1.8,44.2
					c0,7.4-1,12.7-3.1,15.9s-6.4,4.7-12.9,4.7c-6,0-11-2-15-6.1c0.3-21.9,0.4-41.5,0.4-58.8h-22.3c1,17.3,1.5,30.9,1.5,40.8
					c0,12.9-1.4,25.4-4.1,37.4l21.2,2.3l1.4-8.8h1.3c7.2,6.5,15.3,9.8,24.3,9.8c11.3,0,19.2-3.3,23.8-9.8h1.3
					c8.2,6.5,16.3,9.8,24.3,9.8c9.4,0,16.5-2,21.3-6.1c4.8-4.1,7.2-11.4,7.2-22.1c0-1.1-0.1-3.1-0.2-6c-0.1-3-0.2-5-0.2-6
					C-111.9-14.2-111.8-28-111.6-46.3z"/>
			</g>
			<g>
				<path class="st0" d="M-23.1-5c0-13.9-4.3-24.8-12.9-32.7c-8.6-7.9-18.7-11.8-30.3-11.8c-11.1,0-20.6,3.6-28.5,10.7
					c-7.9,7.2-11.9,17.3-11.9,30.3c0,14,4.3,25,12.9,32.9c8.6,7.9,18.8,11.9,30.4,11.9c11,0,20.5-3.6,28.3-10.8
					C-27.1,18.2-23.1,8-23.1-5z M-44.8-7.5c0,8-1.9,14.8-5.6,20.2c-3.8,5.5-8.7,8.2-14.7,8.2c-5.9,0-10.6-2.5-14.3-7.6
					C-83.1,8.1-85,1.8-85-5.9c0-8,1.9-14.8,5.6-20.2c3.8-5.5,8.7-8.2,14.7-8.2c5.9,0,10.6,2.5,14.3,7.6
					C-46.6-21.5-44.8-15.2-44.8-7.5z"/>
			</g>
			<g>
				<path class="st0" d="M70.2,44l-1.8-15.4c-8.6,0-14-1.2-16.2-3.7v-1.1C55.4,19.6,57,15,57,9.8c0-7.9-2.9-14.7-8.8-20.3
					c-5.8-5.6-14.5-8.4-26.1-8.4c-5.6,0-10.3,0.4-13.9,1.3c-2.9-1.3-4.4-3.1-4.4-5.2c0-3.4,1.8-5.7,5.3-7.1c3.5-1.4,11.7-2,24.5-2
					c22.2,0,33.3-7.6,33.3-22.7c0-10.6-4.6-19.1-13.9-25.3c-9.2-6.3-20.5-9.4-33.7-9.4c-25.9,0-38.8,8.1-38.8,24.4
					c0,5,1.5,9.3,4.4,12.8c2.9,3.5,6.3,5.7,10.1,6.4v1.2c-4.6,2.9-7,7.4-7,13.4c0,6.1,3.2,11.2,9.5,15.3v1.2
					c-9,4.5-13.4,11.5-13.4,21c0,8.1,3.1,14.9,9.3,20.4c6.2,5.5,15.7,8.2,28.6,8.2c8.8,0,15.9-1.7,21.4-5h1.2
					c1.6,10.5,7,15.7,16.1,15.7C64.3,45.9,67.5,45.3,70.2,44z M46.5-60.7c0,4.1-1.6,7.1-4.7,8.9c-3.1,1.8-8.5,2.7-16.1,2.7
					c-6.2,0-12.5,0.3-18.8,0.8C2-51.1-0.4-55.4-0.4-61.1C-0.4-71.7,6.7-77,20.9-77c7.9,0,14.2,1.5,18.8,4.5
					C44.2-69.5,46.5-65.6,46.5-60.7z M36.7,7.7c0,5-1.6,8.8-4.8,11.4c-3.2,2.6-6.9,3.9-11,3.9s-7.8-1.3-10.9-3.8
					c-3.1-2.5-4.7-6.2-4.7-11.1c0-4.9,1.6-8.7,4.8-11.2c3.2-2.5,6.9-3.8,11.2-3.8c4,0,7.6,1.2,10.7,3.7C35.1-0.8,36.7,2.8,36.7,7.7z
					"/>
			</g>
			<g>
				<path class="st0" d="M105.3-46.3H82.6c0.8,19,1.2,39.5,1.2,61.7c0,21.6-0.9,39.9-2.6,55l24,1.3c-0.8-15.7-1.2-34.4-1.2-56.4
					C104-6.9,104.5-27.4,105.3-46.3z"/>
			</g>
			<g>
				<path class="st0" d="M143.8-46.3h-22.3c0.8,11.5,1.2,24.6,1.2,39.4c0,14.7-0.9,27.6-2.8,38.7l23.9,2.4
					c-0.7-10.7-1.1-24.4-1.1-41.1C142.7-21.1,143.1-34.2,143.8-46.3z M147.7,57.6c0-3.8-1.3-7.1-3.9-9.9s-6.2-4.2-10.7-4.2
					c-3.9,0-6.9,1.2-9.1,3.7c-2.2,2.4-3.3,5.4-3.3,8.8c0,3.8,1.3,7,3.9,9.8c2.6,2.8,6.2,4.2,10.8,4.2c3.9,0,7-1.2,9.1-3.6
					C146.6,63.9,147.7,61,147.7,57.6z"/>
			</g>
		</g>
	</g>
</symbol>
<rect class="st2" width="176" height="103.2"/>
<use xlink:href="#Symbol_1"  width="481.2" height="165.1" id="XMLID_1_" x="-237.8" y="-93.4" transform="matrix(0.2664 0 0 -0.2664 88.0946 48.128)" style="overflow:visible;"/>
</svg>
