<?xml version="1.0" encoding="utf-8"?>
<!-- Generator: Adobe Illustrator 23.0.3, SVG Export Plug-In . SVG Version: 6.00 Build 0)  -->
<svg version="1.1" id="Layer_1" xmlns="http://www.w3.org/2000/svg" xmlns:xlink="http://www.w3.org/1999/xlink" x="0px" y="0px"
	 viewBox="0 0 394.47 67.03" style="enable-background:new 0 0 394.47 67.03;" xml:space="preserve">
<style type="text/css">
	.st0{fill:#202020;}
</style>
<g>
	<g>
		<path class="st0" d="M43.1,0H10.8L8.64,13.41h32.3c5.05,0,8.48,4.09,7.67,9.14C47.8,27.6,43.05,31.69,38,31.69H19.1H5.69L0,67.03
			h13.41l3.53-21.94h18.89c12.45,0,24.18-10.09,26.18-22.55v0C64.03,10.09,55.56,0,43.1,0z"/>
		<path class="st0" d="M108.31,0C89.79,0,72.37,15.01,69.38,33.52c-2.98,18.51,9.61,33.52,28.12,33.52
			c18.51,0,35.94-15.01,38.92-33.52C139.41,15.01,126.82,0,108.31,0z M123.02,33.52c-1.79,11.09-12.26,20.11-23.35,20.11
			S81.01,44.6,82.79,33.52c1.79-11.09,12.26-20.11,23.35-20.11S124.81,22.43,123.02,33.52z"/>
		<polygon class="st0" points="269.82,0 249.1,0 235.69,0 214.97,0 212.81,13.41 233.53,13.41 224.89,67.03 238.3,67.03 
			246.94,13.41 267.66,13.41 		"/>
		<polygon class="st0" points="331.65,13.41 333.81,0 293.59,0 278.96,0 276.8,13.41 276.8,13.41 274.64,26.81 274.64,26.81 
			273.56,33.52 268.16,67.03 282.79,67.03 323.02,67.03 325.18,53.63 284.95,53.63 287.11,40.22 315.15,40.22 317.31,26.81 
			289.27,26.81 291.43,13.41 		"/>
		<path class="st0" d="M183.27,0h-18.89h-13.41l-2.16,13.41l0,0l-2.95,18.28h0l-2.16,13.41h0l-3.53,21.94h13.41l3.53-21.94h15.67
			l7.61,21.94h14.62l-8.44-24.36l0-0.01c7.94-3.72,14.2-11.33,15.62-20.12v0C204.2,10.09,195.73,0,183.27,0z M188.78,22.55
			c-0.59,3.64-3.22,6.77-6.53,8.24c-0.22,0.1-0.45,0.19-0.68,0.28c-0.11,0.04-0.22,0.08-0.34,0.12c-0.22,0.07-0.44,0.13-0.66,0.19
			c-0.12,0.03-0.23,0.06-0.35,0.09c-0.24,0.05-0.48,0.09-0.72,0.13c-0.1,0.01-0.2,0.03-0.3,0.05c-0.34,0.04-0.69,0.06-1.03,0.06
			h-10.03l0,0h-8.86l2.95-18.28h18.89C186.16,13.41,189.6,17.5,188.78,22.55z"/>
		<path class="st0" d="M375.26,0h-18.89h-13.41l-2.16,13.41l0,0l-8.64,53.63h13.41l3.53-21.94h15.67l7.61,21.94h14.62l-8.44-24.36
			l0-0.01c7.94-3.72,14.2-11.33,15.62-20.12l0,0C396.18,10.09,387.71,0,375.26,0z M380.77,22.55c-0.59,3.64-3.22,6.77-6.53,8.24
			c-0.22,0.1-0.45,0.19-0.68,0.28c-0.11,0.04-0.22,0.08-0.34,0.12c-0.22,0.07-0.44,0.13-0.66,0.19c-0.12,0.03-0.23,0.06-0.35,0.09
			c-0.24,0.05-0.48,0.09-0.72,0.13c-0.1,0.01-0.2,0.03-0.3,0.05c-0.34,0.04-0.69,0.06-1.03,0.06h-10.03l0,0h-8.86l2.95-18.28h18.89
			C378.15,13.41,381.58,17.5,380.77,22.55z"/>
	</g>
</g>
</svg>
