<?xml version="1.0" encoding="utf-8"?>
<!-- Generator: Adobe Illustrator 23.0.3, SVG Export Plug-In . SVG Version: 6.00 Build 0)  -->
<svg version="1.1" id="Layer_1" xmlns="http://www.w3.org/2000/svg" xmlns:xlink="http://www.w3.org/1999/xlink" x="0px" y="0px"
	 viewBox="0 0 460 110" style="enable-background:new 0 0 460 110;" xml:space="preserve">
<style type="text/css">
	.st0{fill:#FCD311;}
	.st1{fill:#202020;}
</style>
<g>
	<path class="st0" d="M437.17,110H5.73c-3.53,0-6.22-3.16-5.66-6.64L15.76,6.02C16.31,2.55,19.31,0,22.83,0h431.44
		c3.53,0,6.22,3.16,5.66,6.64l-15.68,97.34C443.69,107.45,440.69,110,437.17,110z"/>
	<g>
		<path class="st1" d="M74.22,21.48h-32.3l-2.16,13.41h32.3c5.05,0,8.48,4.09,7.67,9.14c-0.81,5.05-5.57,9.14-10.61,9.14H50.22
			H36.81l-5.69,35.34h13.41l3.53-21.94h18.89c12.45,0,24.18-10.09,26.18-22.55v0C95.14,31.58,86.67,21.48,74.22,21.48z"/>
		<path class="st1" d="M139.42,21.48c-18.51,0-35.94,15.01-38.92,33.52c-2.98,18.51,9.61,33.52,28.12,33.52
			c18.51,0,35.94-15.01,38.92-33.52C170.52,36.49,157.93,21.48,139.42,21.48z M154.13,55c-1.79,11.09-12.26,20.11-23.35,20.11
			c-11.09,0-18.66-9.02-16.87-20.11c1.79-11.09,12.26-20.11,23.35-20.11C148.35,34.89,155.92,43.91,154.13,55z"/>
		<polygon class="st1" points="300.93,21.48 280.21,21.48 266.8,21.48 246.08,21.48 243.92,34.89 264.64,34.89 256,88.52 
			269.41,88.52 278.05,34.89 298.77,34.89 		"/>
		<polygon class="st1" points="362.77,34.89 364.93,21.48 324.7,21.48 310.08,21.48 307.92,34.89 307.92,34.89 305.76,48.3 
			305.76,48.3 304.68,55 299.28,88.52 313.9,88.52 354.13,88.52 356.29,75.11 316.06,75.11 318.22,61.7 346.26,61.7 348.42,48.3 
			320.38,48.3 322.54,34.89 		"/>
		<path class="st1" d="M214.39,21.48h-18.89h-13.41l-2.16,13.41l0,0l-2.95,18.28h0l-2.16,13.41h0l-3.53,21.94h13.41l3.53-21.94
			h15.67l7.61,21.94h14.62l-8.44-24.36l0-0.01c7.94-3.72,14.2-11.33,15.62-20.12v0C235.31,31.58,226.84,21.48,214.39,21.48z
			 M219.9,44.03c-0.59,3.64-3.22,6.77-6.53,8.24c-0.22,0.1-0.45,0.19-0.68,0.28c-0.11,0.04-0.22,0.08-0.34,0.12
			c-0.22,0.07-0.44,0.13-0.66,0.19c-0.12,0.03-0.23,0.06-0.35,0.09c-0.24,0.05-0.48,0.09-0.72,0.13c-0.1,0.01-0.2,0.03-0.3,0.05
			c-0.34,0.04-0.69,0.06-1.03,0.06h-10.03l0,0h-8.86l2.95-18.28h18.89C217.28,34.89,220.71,38.98,219.9,44.03z"/>
		<path class="st1" d="M406.37,21.48h-18.89h-13.41l-2.16,13.41l0,0l-8.64,53.63h13.41l3.53-21.94h15.67l7.61,21.94h14.62
			l-8.44-24.36l0-0.01c7.94-3.72,14.2-11.33,15.62-20.12l0,0C427.3,31.58,418.83,21.48,406.37,21.48z M411.88,44.03
			c-0.59,3.64-3.22,6.77-6.53,8.24c-0.22,0.1-0.45,0.19-0.68,0.28c-0.11,0.04-0.22,0.08-0.34,0.12c-0.22,0.07-0.44,0.13-0.66,0.19
			c-0.12,0.03-0.23,0.06-0.35,0.09c-0.24,0.05-0.48,0.09-0.72,0.13c-0.1,0.01-0.2,0.03-0.3,0.05c-0.34,0.04-0.69,0.06-1.03,0.06
			h-10.03l0,0h-8.86l2.95-18.28h18.89C409.26,34.89,412.7,38.98,411.88,44.03z"/>
	</g>
</g>
</svg>
