
<svg width="134px" height="34px" viewBox="0 0 134 34" version="1.1" xmlns="http://www.w3.org/2000/svg" xmlns:xlink="http://www.w3.org/1999/xlink">
    <g id="Abstract-graph" stroke="none" stroke-width="1" fill="none" fill-rule="evenodd">
        <g id="Desktop-HD" transform="translate(-654.000000, -811.000000)" fill="#1A4667">
            <g id="Portfolio-content" transform="translate(220.000000, 391.000000)">
                <path d="M447.896,445.704 C445.159986,445.704 442.74201,445.188005 440.642,444.156 C438.541989,443.123995 436.910006,441.65401 435.746,439.746 C434.581994,437.83799 434,435.612013 434,433.068 C434,430.499987 434.575994,428.22601 435.728,426.246 C436.880006,424.26599 438.46399,422.730005 440.48,421.638 C442.49601,420.545995 444.751988,420 447.248,420 C449.744012,420 451.99999,420.545995 454.016,421.638 C456.03201,422.730005 457.615994,424.26599 458.768,426.246 C459.920006,428.22601 460.496,430.499987 460.496,433.068 C460.496,435.10801 460.034005,436.973992 459.11,438.666 C458.185995,440.358008 456.968008,441.647996 455.456,442.536 L460.892,442.536 L460.892,445.704 L447.896,445.704 Z M447.248,442.356 C449.096009,442.356 450.739993,441.996004 452.18,441.276 C453.620007,440.555996 454.741996,439.494007 455.546,438.09 C456.350004,436.685993 456.752,435.01201 456.752,433.068 C456.752,431.14799 456.332004,429.450007 455.492,427.974 C454.651996,426.497993 453.512007,425.364004 452.072,424.572 C450.631993,423.779996 449.024009,423.384 447.248,423.384 C445.471991,423.384 443.858007,423.779996 442.406,424.572 C440.953993,425.364004 439.808004,426.491993 438.968,427.956 C438.127996,429.420007 437.708,431.12399 437.708,433.068 C437.708,435.03601 438.109996,436.715993 438.914,438.108 C439.718004,439.500007 440.839993,440.555996 442.28,441.276 C443.720007,441.996004 445.375991,442.356 447.248,442.356 Z M472.7,446.244 C470.75599,446.244 469.046007,445.878004 467.57,445.146 C466.093993,444.413996 464.942004,443.358007 464.114,441.978 C463.285996,440.597993 462.872,438.972009 462.872,437.1 C462.872,435.251991 463.279996,433.632007 464.096,432.24 C464.912004,430.847993 466.063993,429.774004 467.552,429.018 C469.040007,428.261996 470.75599,427.884 472.7,427.884 C474.64401,427.884 476.359993,428.261996 477.848,429.018 C479.336007,429.774004 480.493996,430.847993 481.322,432.24 C482.150004,433.632007 482.564,435.251991 482.564,437.1 C482.564,438.972009 482.150004,440.597993 481.322,441.978 C480.493996,443.358007 479.336007,444.413996 477.848,445.146 C476.359993,445.878004 474.64401,446.244 472.7,446.244 Z M472.7,443.364 C474.572009,443.364 476.059994,442.788006 477.164,441.636 C478.268006,440.483994 478.82,438.972009 478.82,437.1 C478.82,435.15599 478.268006,433.620006 477.164,432.492 C476.059994,431.363994 474.572009,430.8 472.7,430.8 C470.827991,430.8 469.340006,431.363994 468.236,432.492 C467.131994,433.620006 466.58,435.15599 466.58,437.1 C466.58,438.972009 467.131994,440.483994 468.236,441.636 C469.340006,442.788006 470.827991,443.364 472.7,443.364 Z M486.524,428.424 L490.052,428.424 L490.052,430.98 C491.828009,428.91599 494.227985,427.884 497.252,427.884 C498.980009,427.884 500.533993,428.267996 501.914,429.036 C503.294007,429.804004 504.373996,430.877993 505.154,432.258 C505.934004,433.638007 506.324,435.239991 506.324,437.064 C506.324,438.864009 505.934004,440.459993 505.154,441.852 C504.373996,443.244007 503.300007,444.323996 501.932,445.092 C500.563993,445.860004 499.004009,446.244 497.252,446.244 C495.811993,446.244 494.468006,446.004002 493.22,445.524 C491.971994,445.043998 490.952004,444.336005 490.16,443.4 L490.16,453.588 L486.524,453.588 L486.524,428.424 Z M496.424,443.364 C497.600006,443.364 498.661995,443.106003 499.61,442.59 C500.558005,442.073997 501.301997,441.336005 501.842,440.376 C502.382003,439.415995 502.652,438.312006 502.652,437.064 C502.652,435.815994 502.382003,434.718005 501.842,433.77 C501.301997,432.821995 500.558005,432.090003 499.61,431.574 C498.661995,431.057997 497.600006,430.8 496.424,430.8 C494.959993,430.8 493.670006,431.183996 492.554,431.952 C491.437994,432.720004 490.640002,433.775993 490.16,435.12 L490.16,439.008 C490.568002,440.328007 491.347994,441.383996 492.5,442.176 C493.652006,442.968004 494.959993,443.364 496.424,443.364 Z M510.284,428.424 L513.812,428.424 L513.812,430.98 C515.588009,428.91599 517.987985,427.884 521.012,427.884 C522.740009,427.884 524.293993,428.267996 525.674,429.036 C527.054007,429.804004 528.133996,430.877993 528.914,432.258 C529.694004,433.638007 530.084,435.239991 530.084,437.064 C530.084,438.864009 529.694004,440.459993 528.914,441.852 C528.133996,443.244007 527.060007,444.323996 525.692,445.092 C524.323993,445.860004 522.764009,446.244 521.012,446.244 C519.571993,446.244 518.228006,446.004002 516.98,445.524 C515.731994,445.043998 514.712004,444.336005 513.92,443.4 L513.92,453.588 L510.284,453.588 L510.284,428.424 Z M520.184,443.364 C521.360006,443.364 522.421995,443.106003 523.37,442.59 C524.318005,442.073997 525.061997,441.336005 525.602,440.376 C526.142003,439.415995 526.412,438.312006 526.412,437.064 C526.412,435.815994 526.142003,434.718005 525.602,433.77 C525.061997,432.821995 524.318005,432.090003 523.37,431.574 C522.421995,431.057997 521.360006,430.8 520.184,430.8 C518.719993,430.8 517.430006,431.183996 516.314,431.952 C515.197994,432.720004 514.400002,433.775993 513.92,435.12 L513.92,439.008 C514.328002,440.328007 515.107994,441.383996 516.26,442.176 C517.412006,442.968004 518.719993,443.364 520.184,443.364 Z M543.548,446.244 C540.355984,446.244 537.854009,445.446008 536.042,443.85 C534.229991,442.253992 533.324,440.004015 533.324,437.1 C533.324,434.267986 534.133992,432.024008 535.754,430.368 C537.374008,428.711992 539.683985,427.884 542.684,427.884 C544.67601,427.884 546.367993,428.261996 547.76,429.018 C549.152007,429.774004 550.201996,430.817993 550.91,432.15 C551.618004,433.482007 551.972,434.999991 551.972,436.704 L551.972,438.504 L536.78,438.504 C536.900001,440.136008 537.589994,441.353996 538.85,442.158 C540.110006,442.962004 541.819989,443.364 543.98,443.364 C545.084006,443.364 546.199994,443.262001 547.328,443.058 C548.456006,442.853999 549.451996,442.584002 550.316,442.248 L550.316,445.164 C549.547996,445.476002 548.534006,445.733999 547.274,445.938 C546.013994,446.142001 544.772006,446.244 543.548,446.244 Z M548.552,435.948 C548.504,434.315992 547.970005,433.050005 546.95,432.15 C545.929995,431.249995 544.484009,430.8 542.612,430.8 C540.787991,430.8 539.372005,431.267995 538.364,432.204 C537.355995,433.140005 536.828,434.387992 536.78,435.948 L548.552,435.948 Z M555.932,428.424 L559.46,428.424 L559.46,431.52 C560.180004,430.463995 561.193993,429.684003 562.502,429.18 C563.810007,428.675997 565.327991,428.424 567.056,428.424 L567.056,431.268 C565.207991,431.268 563.624007,431.567997 562.304,432.168 C560.983993,432.768003 560.072003,433.715994 559.568,435.012 L559.568,445.704 L555.932,445.704 L555.932,428.424 Z" id="Qopper"></path>
            </g>
        </g>
    </g>
</svg>