<?xml version="1.0" encoding="UTF-8"?>
<svg width="512px" height="117px" viewBox="0 0 512 117" version="1.1" xmlns="http://www.w3.org/2000/svg" xmlns:xlink="http://www.w3.org/1999/xlink">
    <!-- Generator: Sketch 51.1 (57501) - http://www.bohemiancoding.com/sketch -->
    <title>color@2x</title>
    <desc>Created with Sketch.</desc>
    <defs>
        <polygon id="path-1" points="0 82.1809496 477.38365 82.1809496 477.38365 1.02382394 0 1.02382394"></polygon>
    </defs>
    <g id="Page-1" stroke="none" stroke-width="1" fill="none" fill-rule="evenodd">
        <g id="Brand-assets" transform="translate(-101.000000, -289.000000)">
            <g id="exported-for-brand-assets-" transform="translate(88.000000, 289.000000)">
                <g id="color-with-space" transform="translate(13.000000, 0.000000)">
                    <g id="logo/color" transform="translate(16.817518, 16.848000)">
                        <g>
                            <path d="M141.371085,8.56908373 L128.955107,12.2259636 L128.955107,20.0549645 L123.258774,20.0549645 L123.258774,29.5843634 L128.955107,29.5843634 L128.955107,49.124599 C128.955107,53.5548527 128.955107,65.3203772 142.185432,65.3203772 C145.545255,65.3203772 148.430809,64.9372755 150.099453,64.2694084 L150.428265,64.1382934 L150.255152,54.3538349 L149.652842,54.4747065 C148.540413,54.6969874 147.62773,54.8547352 146.008255,54.8547352 C143.71579,54.8547352 141.371085,54.0352663 141.371085,47.9548072 L141.371085,29.5843634 L150.96809,29.5843634 L150.96809,20.0549645 L141.371085,20.0549645 L141.371085,8.56908373 Z" id="Fill-1" fill="#1686F7"></path>
                            <path d="M178.781786,19.3605671 C175.094176,19.3605671 170.541002,21.6724937 168.117423,26.7951986 L167.715883,20.2968103 L156.791338,20.2968103 L156.812849,20.8294651 C156.970597,24.7721348 157.124248,29.0671761 157.124248,34.3855292 L157.124248,64.7816789 L169.696949,64.7816789 L169.696949,41.7976252 C169.696949,35.2787502 172.947167,31.386273 178.391514,31.386273 C179.504967,31.386273 180.417651,31.4579765 181.264777,31.611627 L181.869135,31.7222553 L181.869135,19.6873303 L181.457352,19.6043591 C180.578472,19.4291976 179.828657,19.3605671 178.781786,19.3605671" id="Fill-3" fill="#1686F7"></path>
                            <path d="M201.72333,56.3447345 C198.623689,56.3447345 196.773738,54.319622 196.773738,50.9270208 C196.773738,46.1925393 200.707188,43.7423274 208.467559,43.6398937 L208.467559,49.3669569 C208.467559,54.4497127 204.330265,56.3447345 201.72333,56.3447345 M220.727838,53.9703234 L220.727838,38.0531646 C220.727838,25.7006954 214.780542,19.4389288 203.049845,19.4389288 C194.668727,19.4389288 189.203894,22.3009239 187.72885,23.1777556 L187.387746,23.3805742 L189.871761,31.8948559 L190.442316,31.5455573 C193.403672,29.7355554 197.300246,28.6559051 200.864936,28.6559051 C206.976125,28.6559051 208.057824,31.8835882 208.14899,35.2024372 C193.069738,35.3396982 184.435609,41.4795689 184.435609,52.097837 C184.435609,59.9442516 190.130918,65.6395604 197.978357,65.6395604 C202.657524,65.6395604 206.766136,63.8643859 209.396631,60.7401608 L210.023525,64.7811667 L221.449994,64.7811667 L221.343464,64.1798814 C220.934753,61.8628331 220.727838,58.4272098 220.727838,53.9703234" id="Fill-5" fill="#1686F7"></path>
                            <path d="M251.188111,20.2969127 L245.624941,41.7536812 C244.805472,45.1001873 244.158092,47.9877908 243.587537,50.8590049 C242.977032,47.7808749 242.305068,44.7816188 241.545011,41.7424135 L235.747268,20.2969127 L222.236275,20.2969127 L237.171095,64.7817813 L249.063638,64.7817813 L264.238153,20.2969127 L251.188111,20.2969127 Z" id="Fill-7" fill="#1686F7"></path>
                            <path d="M284.289942,28.421537 C286.080481,28.421537 287.564744,29.0084816 288.702782,30.1649571 C290.806768,32.3068439 291.162213,35.6851044 291.18987,37.4623275 L276.659662,37.4623275 C277.066324,33.8638348 279.051487,28.421537 284.289942,28.421537 M284.992636,19.3602598 C272.976149,19.3602598 264.583764,29.1324263 264.583764,43.1248575 C264.583764,57.1736273 272.650411,65.5619157 286.162428,65.5619157 C291.50639,65.5619157 296.699774,64.6359159 300.410944,63.0225865 L300.791997,62.856644 L298.952289,53.9213601 L298.40222,54.109838 C294.83036,55.331871 291.609848,55.8768178 287.957065,55.8768178 C284.737577,55.8768178 277.295775,54.9508179 276.6402,46.5236048 L302.504687,46.5236048 L302.582536,46.1056756 C302.798671,44.9543218 302.904178,43.4178177 302.904178,41.4080702 C302.904178,27.6030925 296.208092,19.3602598 284.992636,19.3602598" id="Fill-9" fill="#1686F7"></path>
                            <mask id="mask-2" fill="white">
                                <use xlink:href="#path-1"></use>
                            </mask>
                            <g id="Clip-12"></g>
                            <polygon id="Fill-11" fill="#1686F7" mask="url(#mask-2)" points="308.359997 64.7815765 320.931674 64.7815765 320.931674 1.02484828 308.359997 1.02484828"></polygon>
                            <path d="M345.353998,37.5810481 C340.393138,35.4883294 339.034868,34.3482433 339.034868,32.2790844 C339.034868,30.043983 340.901209,28.6560076 343.906611,28.6560076 C347.287944,28.6560076 350.337393,30.034764 351.855459,30.8562815 L352.42499,31.165631 L354.884421,22.0306016 L354.523855,21.8390507 C351.559426,20.2636218 347.547101,19.3601574 343.516339,19.3601574 C333.843533,19.3601574 327.087012,25.2183356 327.087012,33.6055996 C327.087012,37.4878335 329.065005,42.9157905 338.477629,46.7160775 C343.077923,48.6776812 344.408535,49.9365902 344.408535,52.3314881 C344.408535,54.8185761 342.457175,56.1891379 338.912972,56.1891379 C335.577734,56.1891379 331.416881,54.7714567 329.028129,53.3722136 L328.445282,53.0300853 L325.991997,62.4058337 L326.322857,62.6025062 C329.392792,64.4278732 334.186685,65.5618133 338.835123,65.5618133 C349.690012,65.5618133 356.434241,60.1031261 356.434241,51.3173953 C356.434241,45.0822614 352.912574,40.7175653 345.353998,37.5810481" id="Fill-13" fill="#1686F7" mask="url(#mask-2)"></path>
                            <path d="M377.582582,8.81062219 L365.166604,12.4675021 L365.166604,20.296503 L359.470271,20.296503 L359.470271,29.8259018 L365.166604,29.8259018 L365.166604,49.3661375 C365.166604,53.7963911 365.166604,65.5619157 378.396929,65.5619157 C381.756752,65.5619157 384.642307,65.178814 386.31095,64.5109469 L386.639762,64.3798318 L386.466649,54.5953733 L385.865364,54.716245 C384.751911,54.9385259 383.838203,55.0962737 382.219752,55.0962737 C379.927288,55.0962737 377.582582,54.2768048 377.582582,48.1963456 L377.582582,29.8259018 L387.179587,29.8259018 L387.179587,20.296503 L377.582582,20.296503 L377.582582,8.81062219 Z" id="Fill-14" fill="#1686F7" mask="url(#mask-2)"></path>
                            <path d="M411.716739,28.8897611 C417.130356,28.8897611 419.552911,35.6862311 419.552911,42.4222654 C419.552911,49.2361492 417.106796,56.1104688 411.63889,56.1104688 C406.063428,56.1104688 403.568146,49.275074 403.568146,42.500115 C403.568146,36.2219589 405.701838,28.8897611 411.716739,28.8897611 M411.951312,19.3603622 C399.126624,19.3603622 390.839745,28.5353408 390.839745,42.7346879 C390.839745,56.6492696 398.942244,65.6398677 411.482166,65.6398677 C421.077123,65.6398677 432.281311,59.4979484 432.281311,42.1876924 C432.281311,28.5343164 424.111206,19.3603622 411.951312,19.3603622" id="Fill-15" fill="#1686F7" mask="url(#mask-2)"></path>
                            <path d="M456.50645,29.6699979 C461.532868,29.6699979 464.655044,34.5857869 464.655044,42.4998076 C464.655044,50.5582598 461.442726,55.5641904 456.271877,55.5641904 C452.682604,55.5641904 449.059527,52.8271643 449.059527,46.7139264 L449.059527,38.5991357 C449.059527,33.6751521 452.399887,29.6699979 456.50645,29.6699979 M460.329273,19.3610793 C454.984287,19.3610793 450.641102,21.469163 447.69716,25.4753415 L447.220844,20.2973225 L436.155965,20.2973225 L436.175427,20.8289529 C436.338297,24.9570274 436.48785,29.5327368 436.48785,35.009862 L436.48785,82.1815642 L449.059527,82.1815642 L449.059527,61.3926629 C451.327407,64.0723261 454.947411,65.6395604 459.003782,65.6395604 C468.152128,65.6395604 477.383445,58.3647253 477.383445,42.1105599 C477.383445,28.7153166 470.37084,19.3610793 460.329273,19.3610793" id="Fill-16" fill="#1686F7" mask="url(#mask-2)"></path>
                            <path d="M77.9437833,47.3472734 L10.4021332,47.3472734 C4.65765629,47.3472734 0,42.6896171 0,36.9441159 C0,31.1986146 4.65765629,26.5419827 10.4021332,26.5419827 L77.9437833,26.5419827 C83.6892845,26.5419827 88.3459165,31.1986146 88.3459165,36.9441159 C88.3459165,42.6896171 83.6892845,47.3472734 77.9437833,47.3472734" id="Fill-18" fill="#1686F7" mask="url(#mask-2)"></path>
                            <path d="M35.0712197,72.0273204 C33.1761979,72.0273204 31.2555677,71.5100306 29.5213667,70.4150153 C24.7346441,67.3962968 23.4552483,60.948101 26.2875376,56.0487014 L37.3903167,36.847521 C37.3985114,36.832156 37.3985114,36.8137179 37.3892924,36.7983529 L26.3059756,17.8675972 C23.494173,13.0644852 24.6516728,6.73101501 29.2765504,3.63239828 C34.3029677,0.265405486 41.0482209,1.86746716 44.0577204,7.00963444 L58.4025233,31.5107299 C60.3016425,34.7548023 60.3118858,38.7681512 58.4312047,42.022467 L44.0864019,66.8298389 C42.1586013,70.164053 38.6635665,72.0273204 35.0712197,72.0273204" id="Fill-17" fill="#10C8ED" style="mix-blend-mode: multiply;" mask="url(#mask-2)"></path>
                        </g>
                    </g>
                </g>
            </g>
        </g>
    </g>
</svg>