<svg xmlns="http://www.w3.org/2000/svg" viewBox="0 0 25 25">
  <path fill="#b7b4b4" fill-rule="evenodd" d="M1104,935 L1129,935 L1129,960 L1104,960 L1104,935 Z M1113.21744,941.513882 C1113.43098,941.414923 1113.63541,941.342007 1113.83072,941.295132 C1114.02603,941.248257 1114.20962,941.224819 1114.3815,941.224819 C1115.069,941.224819 1115.64843,941.461796 1116.11978,941.935757 C1116.59114,942.409718 1116.82681,942.987837 1116.82681,943.670132 C1116.82681,943.998259 1116.76562,944.310755 1116.64322,944.607632 C1116.52082,944.904508 1116.34244,945.167527 1116.10806,945.396694 C1115.8789,945.631071 1115.61457,945.809454 1115.31509,945.931851 C1115.01561,946.054247 1114.70442,946.115444 1114.3815,946.115444 C1113.85025,946.115444 1113.39843,945.978727 1113.02603,945.705288 C1112.65363,945.431849 1112.33723,945.003468 1112.07681,944.420132 C1111.80077,945.008676 1111.47525,945.43836 1111.10025,945.709194 C1110.72525,945.980029 1110.27213,946.115444 1109.74088,946.115444 C1109.01171,946.115444 1108.41666,945.860239 1107.95572,945.349819 C1107.49478,944.8394 1107.26431,944.17274 1107.26431,943.349819 C1107.26431,942.615441 1107.42186,941.934458 1107.73697,941.306851 C1108.05207,940.679243 1108.49608,940.159717 1109.069,939.748257 C1109.39713,939.519089 1109.77082,939.342008 1110.19009,939.217007 C1110.60937,939.092006 1111.04035,939.029507 1111.48306,939.029507 L1111.7565,939.029507 L1112.07681,939.396694 C1111.12889,939.480028 1110.37239,939.692266 1109.80728,940.033413 C1109.24217,940.374561 1108.83202,940.868045 1108.57681,941.513882 C1108.80077,941.414923 1109.0091,941.342007 1109.20181,941.295132 C1109.39452,941.248257 1109.57421,941.224819 1109.74088,941.224819 C1110.20963,941.224819 1110.62238,941.338099 1110.97916,941.564663 C1111.33593,941.791227 1111.66535,942.146692 1111.96744,942.631069 C1112.28515,941.443563 1112.79426,940.546437 1113.49478,939.939663 C1114.19531,939.332889 1115.0716,939.029507 1116.12369,939.029507 L1116.39713,939.029507 L1116.71744,939.396694 C1115.76952,939.480028 1115.01171,939.693568 1114.444,940.037319 C1113.87629,940.381071 1113.46744,940.873254 1113.21744,941.513882 Z M1120.47625,950.827203 C1120.7523,950.249075 1121.07912,949.821996 1121.45672,949.545953 C1121.83433,949.26991 1122.28615,949.13189 1122.81219,949.13189 C1123.53615,949.13189 1124.1299,949.391002 1124.59344,949.909234 C1125.05699,950.427466 1125.28875,951.092824 1125.28875,951.905328 C1125.28875,952.644915 1125.13251,953.3272 1124.82,953.952203 C1124.5075,954.577206 1124.06219,955.092826 1123.48407,955.499078 C1123.15594,955.728246 1122.78094,955.905327 1122.35907,956.030328 C1121.93719,956.155328 1121.50751,956.217828 1121.07,956.217828 L1120.79657,956.217828 L1120.47625,955.85064 C1121.42418,955.772515 1122.18458,955.56158 1122.7575,955.217828 C1123.33042,954.874076 1123.73667,954.381894 1123.97625,953.741265 C1123.76792,953.835016 1123.5648,953.90663 1123.36688,953.956109 C1123.16896,954.005588 1122.98407,954.030328 1122.81219,954.030328 C1122.34344,954.030328 1121.93068,953.917048 1121.57391,953.690484 C1121.21714,953.46392 1120.88771,953.108455 1120.58563,952.624078 C1120.26792,953.811584 1119.75881,954.707408 1119.05829,955.311578 C1118.35776,955.915747 1117.48147,956.217828 1116.42938,956.217828 L1116.15594,956.217828 L1115.83563,955.85064 C1116.78876,955.772515 1117.54917,955.56158 1118.11688,955.217828 C1118.68459,954.874076 1119.09344,954.381894 1119.34344,953.741265 C1119.12469,953.840224 1118.91896,953.91314 1118.72625,953.960015 C1118.53355,954.006891 1118.34865,954.030328 1118.17157,954.030328 C1117.48406,954.030328 1116.90464,953.794653 1116.43329,953.323297 C1115.96193,952.85194 1115.72625,952.272519 1115.72625,951.585015 C1115.72625,950.90272 1115.96323,950.323299 1116.43719,949.846734 C1116.91115,949.370169 1117.48927,949.13189 1118.17157,949.13189 C1118.69761,949.13189 1119.14552,949.268608 1119.51532,949.542047 C1119.88511,949.815485 1120.20542,950.243867 1120.47625,950.827203 Z" transform="translate(-1104 -935)"/>
</svg>
